<svg width="609" height="61" viewBox="0 0 609 61" fill="none" xmlns="http://www.w3.org/2000/svg">
<line y1="0.5" x2="609" y2="0.5" stroke="#030712" stroke-opacity="0.2" stroke-dasharray="5 5"/>
<line y1="60.5" x2="609" y2="60.5" stroke="#030712" stroke-opacity="0.2" stroke-dasharray="5 5"/>
<path d="M38.544 38H36.4474L41.1584 24.9091H43.4403L48.1513 38H46.0547L42.3537 27.2869H42.2514L38.544 38ZM38.8956 32.8736H45.6967V34.5355H38.8956V32.8736ZM57.057 28.1818L53.4966 38H51.4512L47.8844 28.1818H49.9363L52.4228 35.7372H52.525L55.0051 28.1818H57.057ZM61.4292 38.2173C60.807 38.2173 60.2445 38.1023 59.7417 37.8722C59.2388 37.6378 58.8404 37.299 58.5463 36.8558C58.2566 36.4126 58.1117 35.8693 58.1117 35.2259C58.1117 34.6719 58.2182 34.2159 58.4313 33.858C58.6444 33.5 58.932 33.2166 59.2942 33.0078C59.6564 32.799 60.0613 32.6413 60.5087 32.5348C60.9561 32.4283 61.4121 32.3473 61.8766 32.2919C62.4647 32.2237 62.9419 32.1683 63.3084 32.1257C63.6749 32.0788 63.9412 32.0043 64.1074 31.902C64.2736 31.7997 64.3567 31.6335 64.3567 31.4034V31.3587C64.3567 30.8004 64.199 30.3679 63.8837 30.0611C63.5726 29.7543 63.1081 29.6009 62.4902 29.6009C61.8468 29.6009 61.3397 29.7436 60.9689 30.0291C60.6025 30.3104 60.3489 30.6236 60.2083 30.9688L58.4121 30.5597C58.6252 29.9631 58.9363 29.4815 59.3453 29.1151C59.7587 28.7443 60.2338 28.4759 60.7708 28.3097C61.3077 28.1392 61.8723 28.054 62.4647 28.054C62.8567 28.054 63.2722 28.1009 63.7111 28.1946C64.1543 28.2841 64.5676 28.4503 64.9512 28.6932C65.339 28.9361 65.6564 29.2834 65.9036 29.7351C66.1507 30.1825 66.2743 30.7642 66.2743 31.4801V38H64.4078V36.6577H64.3311C64.2076 36.9048 64.0222 37.1477 63.775 37.3864C63.5279 37.625 63.2104 37.8232 62.8226 37.9808C62.4348 38.1385 61.9703 38.2173 61.4292 38.2173ZM61.8446 36.6832C62.373 36.6832 62.8248 36.5788 63.1998 36.37C63.579 36.1612 63.8667 35.8885 64.0627 35.5518C64.263 35.2109 64.3631 34.8466 64.3631 34.4588V33.1932C64.2949 33.2614 64.1628 33.3253 63.9668 33.3849C63.775 33.4403 63.5556 33.4893 63.3084 33.532C63.0613 33.5703 62.8205 33.6065 62.5861 33.6406C62.3517 33.6705 62.1557 33.696 61.998 33.7173C61.6273 33.7642 61.2885 33.843 60.9817 33.9538C60.6792 34.0646 60.4363 34.2244 60.253 34.4332C60.074 34.6378 59.9846 34.9105 59.9846 35.2514C59.9846 35.7244 60.1593 36.0824 60.5087 36.3253C60.8581 36.5639 61.3034 36.6832 61.8446 36.6832ZM68.82 38V28.1818H70.7312V38H68.82ZM69.7852 26.6669C69.4528 26.6669 69.1673 26.5561 68.9286 26.3345C68.6942 26.1087 68.5771 25.8402 68.5771 25.5291C68.5771 25.2138 68.6942 24.9453 68.9286 24.7237C69.1673 24.4979 69.4528 24.3849 69.7852 24.3849C70.1175 24.3849 70.4009 24.4979 70.6353 24.7237C70.8739 24.9453 70.9933 25.2138 70.9933 25.5291C70.9933 25.8402 70.8739 26.1087 70.6353 26.3345C70.4009 26.5561 70.1175 26.6669 69.7852 26.6669ZM75.2136 24.9091V38H73.3024V24.9091H75.2136ZM80.642 38.2173C80.0199 38.2173 79.4574 38.1023 78.9545 37.8722C78.4517 37.6378 78.0533 37.299 77.7592 36.8558C77.4695 36.4126 77.3246 35.8693 77.3246 35.2259C77.3246 34.6719 77.4311 34.2159 77.6442 33.858C77.8572 33.5 78.1449 33.2166 78.5071 33.0078C78.8693 32.799 79.2741 32.6413 79.7216 32.5348C80.169 32.4283 80.625 32.3473 81.0895 32.2919C81.6776 32.2237 82.1548 32.1683 82.5213 32.1257C82.8878 32.0788 83.1541 32.0043 83.3203 31.902C83.4865 31.7997 83.5696 31.6335 83.5696 31.4034V31.3587C83.5696 30.8004 83.4119 30.3679 83.0966 30.0611C82.7855 29.7543 82.321 29.6009 81.7031 29.6009C81.0597 29.6009 80.5526 29.7436 80.1818 30.0291C79.8153 30.3104 79.5618 30.6236 79.4212 30.9688L77.625 30.5597C77.8381 29.9631 78.1491 29.4815 78.5582 29.1151C78.9716 28.7443 79.4467 28.4759 79.9837 28.3097C80.5206 28.1392 81.0852 28.054 81.6776 28.054C82.0696 28.054 82.4851 28.1009 82.924 28.1946C83.3672 28.2841 83.7805 28.4503 84.1641 28.6932C84.5518 28.9361 84.8693 29.2834 85.1165 29.7351C85.3636 30.1825 85.4872 30.7642 85.4872 31.4801V38H83.6207V36.6577H83.544C83.4205 36.9048 83.2351 37.1477 82.9879 37.3864C82.7408 37.625 82.4233 37.8232 82.0355 37.9808C81.6477 38.1385 81.1832 38.2173 80.642 38.2173ZM81.0575 36.6832C81.5859 36.6832 82.0376 36.5788 82.4126 36.37C82.7919 36.1612 83.0795 35.8885 83.2756 35.5518C83.4759 35.2109 83.576 34.8466 83.576 34.4588V33.1932C83.5078 33.2614 83.3757 33.3253 83.1797 33.3849C82.9879 33.4403 82.7685 33.4893 82.5213 33.532C82.2741 33.5703 82.0334 33.6065 81.799 33.6406C81.5646 33.6705 81.3686 33.696 81.2109 33.7173C80.8402 33.7642 80.5014 33.843 80.1946 33.9538C79.892 34.0646 79.6491 34.2244 79.4659 34.4332C79.2869 34.6378 79.1974 34.9105 79.1974 35.2514C79.1974 35.7244 79.3722 36.0824 79.7216 36.3253C80.071 36.5639 80.5163 36.6832 81.0575 36.6832ZM88.1863 38V24.9091H90.0975V29.7734H90.2125C90.3233 29.5689 90.4831 29.3324 90.6919 29.0639C90.9007 28.7955 91.1905 28.5611 91.5613 28.3608C91.932 28.1562 92.4221 28.054 93.0314 28.054C93.824 28.054 94.5314 28.2543 95.1536 28.6548C95.7757 29.0554 96.2637 29.6328 96.6174 30.3871C96.9753 31.1413 97.1543 32.049 97.1543 33.1101C97.1543 34.1712 96.9775 35.081 96.6238 35.8395C96.2701 36.5937 95.7843 37.1754 95.1664 37.5845C94.5485 37.9893 93.8432 38.1918 93.0506 38.1918C92.454 38.1918 91.9661 38.0916 91.5868 37.8913C91.2118 37.6911 90.9178 37.4567 90.7047 37.1882C90.4917 36.9197 90.3276 36.6811 90.2125 36.4723H90.0527V38H88.1863ZM90.0591 33.0909C90.0591 33.7812 90.1593 34.3864 90.3596 34.9062C90.5598 35.4261 90.8496 35.8331 91.2289 36.1271C91.6081 36.4169 92.0726 36.5618 92.6223 36.5618C93.1934 36.5618 93.6706 36.4105 94.0542 36.108C94.4377 35.8011 94.7275 35.3857 94.9235 34.8615C95.1238 34.3374 95.2239 33.7472 95.2239 33.0909C95.2239 32.4432 95.1259 31.8615 94.9299 31.3459C94.7381 30.8303 94.4483 30.4233 94.0605 30.125C93.677 29.8267 93.1976 29.6776 92.6223 29.6776C92.0684 29.6776 91.5996 29.8203 91.2161 30.1058C90.8368 30.3913 90.5492 30.7898 90.3532 31.3011C90.1571 31.8125 90.0591 32.4091 90.0591 33.0909ZM101.212 24.9091V38H99.3004V24.9091H101.212ZM108.014 38.1982C107.047 38.1982 106.214 37.9915 105.515 37.5781C104.82 37.1605 104.284 36.5746 103.904 35.8203C103.529 35.0618 103.342 34.1733 103.342 33.1548C103.342 32.1491 103.529 31.2628 103.904 30.4957C104.284 29.7287 104.812 29.13 105.49 28.6996C106.171 28.2692 106.968 28.054 107.88 28.054C108.434 28.054 108.971 28.1456 109.491 28.3288C110.011 28.5121 110.477 28.7997 110.891 29.1918C111.304 29.5838 111.63 30.093 111.869 30.7195C112.107 31.3416 112.227 32.098 112.227 32.9886V33.6662H104.422V32.2344H110.354C110.354 31.7315 110.252 31.2862 110.047 30.8984C109.843 30.5064 109.555 30.1974 109.184 29.9716C108.818 29.7457 108.387 29.6328 107.893 29.6328C107.356 29.6328 106.887 29.7649 106.487 30.0291C106.09 30.2891 105.784 30.63 105.566 31.0518C105.353 31.4695 105.247 31.9233 105.247 32.4134V33.532C105.247 34.1882 105.362 34.7464 105.592 35.2067C105.826 35.6669 106.152 36.0185 106.57 36.2614C106.987 36.5 107.475 36.6193 108.034 36.6193C108.396 36.6193 108.726 36.5682 109.024 36.4659C109.323 36.3594 109.58 36.2017 109.798 35.9929C110.015 35.7841 110.181 35.5263 110.296 35.2195L112.105 35.5455C111.96 36.0781 111.7 36.5447 111.325 36.9453C110.955 37.3416 110.488 37.6506 109.926 37.8722C109.367 38.0895 108.73 38.1982 108.014 38.1982Z" fill="#030712" fill-opacity="0.5"/>
<path d="M5.83333 29.8333C6.45217 29.8333 7.04566 30.0792 7.48325 30.5168C7.92083 30.9543 8.16667 31.5478 8.16667 32.1667V34.5H19.8333V32.1667C19.8333 31.5478 20.0792 30.9543 20.5168 30.5168C20.9543 30.0792 21.5478 29.8333 22.1667 29.8333M5.83333 29.8333C5.21449 29.8333 4.621 30.0792 4.18342 30.5168C3.74583 30.9543 3.5 31.5478 3.5 32.1667V36.8333C3.5 37.4522 3.74583 38.0457 4.18342 38.4832C4.621 38.9208 5.21449 39.1667 5.83333 39.1667H22.1667C22.7855 39.1667 23.379 38.9208 23.8166 38.4832C24.2542 38.0457 24.5 37.4522 24.5 36.8333V32.1667C24.5 31.5478 24.2542 30.9543 23.8166 30.5168C23.379 30.0792 22.7855 29.8333 22.1667 29.8333M5.83333 29.8333V24C5.83333 23.0717 6.20208 22.1815 6.85846 21.5251C7.51484 20.8687 8.40508 20.5 9.33333 20.5H18.6667C19.5949 20.5 20.4852 20.8687 21.1415 21.5251C21.7979 22.1815 22.1667 23.0717 22.1667 24V29.8333M7 39.1667V41.5M21 39.1667V41.5" stroke="#030712" stroke-opacity="0.5" stroke-width="2" stroke-linecap="round" stroke-linejoin="round"/>
<path d="M541.578 28.348C541.51 27.7429 541.229 27.2741 540.734 26.9418C540.24 26.6051 539.618 26.4368 538.868 26.4368C538.331 26.4368 537.866 26.522 537.474 26.6925C537.082 26.8587 536.778 27.0888 536.56 27.3828C536.347 27.6726 536.241 28.0028 536.241 28.3736C536.241 28.6847 536.313 28.9531 536.458 29.179C536.607 29.4048 536.801 29.5945 537.04 29.7479C537.283 29.897 537.543 30.0227 537.82 30.125C538.097 30.223 538.363 30.304 538.619 30.3679L539.897 30.7003C540.315 30.8026 540.743 30.9411 541.182 31.1158C541.621 31.2905 542.028 31.5206 542.403 31.8061C542.778 32.0916 543.08 32.4453 543.31 32.8672C543.545 33.2891 543.662 33.794 543.662 34.3821C543.662 35.1236 543.47 35.782 543.087 36.3572C542.707 36.9325 542.156 37.3864 541.431 37.7188C540.711 38.0511 539.839 38.2173 538.817 38.2173C537.837 38.2173 536.989 38.0618 536.273 37.7507C535.557 37.4396 534.996 36.9986 534.592 36.4276C534.187 35.8523 533.963 35.1705 533.92 34.3821H535.902C535.94 34.8551 536.094 35.2493 536.362 35.5646C536.635 35.8757 536.982 36.108 537.404 36.2614C537.83 36.4105 538.297 36.4851 538.804 36.4851C539.362 36.4851 539.859 36.3977 540.293 36.223C540.732 36.044 541.077 35.7969 541.329 35.4815C541.58 35.1619 541.706 34.7891 541.706 34.3629C541.706 33.9751 541.595 33.6577 541.374 33.4105C541.156 33.1634 540.86 32.9588 540.485 32.7969C540.114 32.6349 539.695 32.4922 539.226 32.3686L537.679 31.9467C536.631 31.6612 535.8 31.2415 535.186 30.6875C534.577 30.1335 534.272 29.4006 534.272 28.4886C534.272 27.7344 534.477 27.076 534.886 26.5135C535.295 25.951 535.849 25.5142 536.548 25.2031C537.246 24.8878 538.035 24.7301 538.913 24.7301C539.799 24.7301 540.581 24.8857 541.259 25.1967C541.94 25.5078 542.477 25.9361 542.869 26.4815C543.261 27.0227 543.466 27.6449 543.483 28.348H541.578ZM550.1 38.1982C549.133 38.1982 548.3 37.9915 547.601 37.5781C546.906 37.1605 546.369 36.5746 545.99 35.8203C545.615 35.0618 545.428 34.1733 545.428 33.1548C545.428 32.1491 545.615 31.2628 545.99 30.4957C546.369 29.7287 546.898 29.13 547.575 28.6996C548.257 28.2692 549.054 28.054 549.966 28.054C550.52 28.054 551.057 28.1456 551.577 28.3288C552.097 28.5121 552.563 28.7997 552.977 29.1918C553.39 29.5838 553.716 30.093 553.955 30.7195C554.193 31.3416 554.313 32.098 554.313 32.9886V33.6662H546.508V32.2344H552.44C552.44 31.7315 552.338 31.2862 552.133 30.8984C551.928 30.5064 551.641 30.1974 551.27 29.9716C550.904 29.7457 550.473 29.6328 549.979 29.6328C549.442 29.6328 548.973 29.7649 548.573 30.0291C548.176 30.2891 547.869 30.63 547.652 31.0518C547.439 31.4695 547.333 31.9233 547.333 32.4134V33.532C547.333 34.1882 547.448 34.7464 547.678 35.2067C547.912 35.6669 548.238 36.0185 548.656 36.2614C549.073 36.5 549.561 36.6193 550.119 36.6193C550.482 36.6193 550.812 36.5682 551.11 36.4659C551.409 36.3594 551.666 36.2017 551.884 35.9929C552.101 35.7841 552.267 35.5263 552.382 35.2195L554.191 35.5455C554.046 36.0781 553.786 36.5447 553.411 36.9453C553.041 37.3416 552.574 37.6506 552.012 37.8722C551.453 38.0895 550.816 38.1982 550.1 38.1982ZM558.344 24.9091V38H556.433V24.9091H558.344ZM565.147 38.1982C564.18 38.1982 563.347 37.9915 562.648 37.5781C561.953 37.1605 561.416 36.5746 561.037 35.8203C560.662 35.0618 560.475 34.1733 560.475 33.1548C560.475 32.1491 560.662 31.2628 561.037 30.4957C561.416 29.7287 561.945 29.13 562.622 28.6996C563.304 28.2692 564.101 28.054 565.013 28.054C565.567 28.054 566.104 28.1456 566.624 28.3288C567.144 28.5121 567.61 28.7997 568.024 29.1918C568.437 29.5838 568.763 30.093 569.002 30.7195C569.24 31.3416 569.36 32.098 569.36 32.9886V33.6662H561.555V32.2344H567.487C567.487 31.7315 567.384 31.2862 567.18 30.8984C566.975 30.5064 566.688 30.1974 566.317 29.9716C565.95 29.7457 565.52 29.6328 565.026 29.6328C564.489 29.6328 564.02 29.7649 563.619 30.0291C563.223 30.2891 562.916 30.63 562.699 31.0518C562.486 31.4695 562.379 31.9233 562.379 32.4134V33.532C562.379 34.1882 562.494 34.7464 562.725 35.2067C562.959 35.6669 563.285 36.0185 563.703 36.2614C564.12 36.5 564.608 36.6193 565.166 36.6193C565.529 36.6193 565.859 36.5682 566.157 36.4659C566.455 36.3594 566.713 36.2017 566.931 35.9929C567.148 35.7841 567.314 35.5263 567.429 35.2195L569.238 35.5455C569.093 36.0781 568.833 36.5447 568.458 36.9453C568.088 37.3416 567.621 37.6506 567.058 37.8722C566.5 38.0895 565.863 38.1982 565.147 38.1982ZM575.616 38.1982C574.665 38.1982 573.847 37.983 573.161 37.5526C572.479 37.1179 571.955 36.5192 571.589 35.7564C571.222 34.9936 571.039 34.12 571.039 33.1357C571.039 32.1385 571.227 31.2585 571.602 30.4957C571.977 29.7287 572.505 29.13 573.187 28.6996C573.869 28.2692 574.672 28.054 575.597 28.054C576.342 28.054 577.007 28.1925 577.591 28.4695C578.175 28.7422 578.646 29.1257 579.004 29.62C579.366 30.1143 579.581 30.6918 579.649 31.3523H577.789C577.687 30.892 577.452 30.4957 577.086 30.1634C576.724 29.831 576.238 29.6648 575.629 29.6648C575.096 29.6648 574.629 29.8054 574.229 30.0866C573.832 30.3636 573.523 30.7599 573.302 31.2756C573.08 31.7869 572.969 32.392 572.969 33.0909C572.969 33.8068 573.078 34.4247 573.295 34.9446C573.513 35.4645 573.82 35.8672 574.216 36.1527C574.616 36.4382 575.087 36.581 575.629 36.581C575.991 36.581 576.319 36.5149 576.613 36.3828C576.911 36.2464 577.161 36.0526 577.361 35.8011C577.565 35.5497 577.708 35.2472 577.789 34.8935H579.649C579.581 35.5284 579.374 36.0952 579.029 36.5938C578.684 37.0923 578.222 37.4844 577.642 37.7699C577.067 38.0554 576.391 38.1982 575.616 38.1982ZM586.276 28.1818V29.7159H580.913V28.1818H586.276ZM582.351 25.8295H584.263V35.1172C584.263 35.4879 584.318 35.767 584.429 35.9545C584.54 36.1378 584.682 36.2635 584.857 36.3317C585.036 36.3956 585.23 36.4276 585.439 36.4276C585.592 36.4276 585.726 36.4169 585.841 36.3956C585.956 36.3743 586.046 36.3572 586.11 36.3445L586.455 37.9233C586.344 37.9659 586.187 38.0085 585.982 38.0511C585.778 38.098 585.522 38.1236 585.215 38.1278C584.712 38.1364 584.243 38.0469 583.809 37.8594C583.374 37.6719 583.023 37.3821 582.754 36.9901C582.486 36.598 582.351 36.1058 582.351 35.5135V25.8295ZM592.516 38.1982C591.549 38.1982 590.716 37.9915 590.017 37.5781C589.322 37.1605 588.786 36.5746 588.406 35.8203C588.031 35.0618 587.844 34.1733 587.844 33.1548C587.844 32.1491 588.031 31.2628 588.406 30.4957C588.786 29.7287 589.314 29.13 589.991 28.6996C590.673 28.2692 591.47 28.054 592.382 28.054C592.936 28.054 593.473 28.1456 593.993 28.3288C594.513 28.5121 594.979 28.7997 595.393 29.1918C595.806 29.5838 596.132 30.093 596.371 30.7195C596.609 31.3416 596.729 32.098 596.729 32.9886V33.6662H588.924V32.2344H594.856C594.856 31.7315 594.754 31.2862 594.549 30.8984C594.344 30.5064 594.057 30.1974 593.686 29.9716C593.32 29.7457 592.889 29.6328 592.395 29.6328C591.858 29.6328 591.389 29.7649 590.989 30.0291C590.592 30.2891 590.286 30.63 590.068 31.0518C589.855 31.4695 589.749 31.9233 589.749 32.4134V33.532C589.749 34.1882 589.864 34.7464 590.094 35.2067C590.328 35.6669 590.654 36.0185 591.072 36.2614C591.489 36.5 591.977 36.6193 592.536 36.6193C592.898 36.6193 593.228 36.5682 593.526 36.4659C593.825 36.3594 594.082 36.2017 594.3 35.9929C594.517 35.7841 594.683 35.5263 594.798 35.2195L596.607 35.5455C596.462 36.0781 596.202 36.5447 595.827 36.9453C595.457 37.3416 594.99 37.6506 594.428 37.8722C593.869 38.0895 593.232 38.1982 592.516 38.1982ZM602.525 38.1918C601.732 38.1918 601.025 37.9893 600.403 37.5845C599.785 37.1754 599.299 36.5937 598.945 35.8395C598.596 35.081 598.421 34.1712 598.421 33.1101C598.421 32.049 598.598 31.1413 598.952 30.3871C599.309 29.6328 599.8 29.0554 600.422 28.6548C601.044 28.2543 601.749 28.054 602.537 28.054C603.147 28.054 603.637 28.1562 604.008 28.3608C604.383 28.5611 604.672 28.7955 604.877 29.0639C605.086 29.3324 605.248 29.5689 605.363 29.7734H605.478V24.9091H607.389V38H605.523V36.4723H605.363C605.248 36.6811 605.081 36.9197 604.864 37.1882C604.651 37.4567 604.357 37.6911 603.982 37.8913C603.607 38.0916 603.121 38.1918 602.525 38.1918ZM602.947 36.5618C603.496 36.5618 603.961 36.4169 604.34 36.1271C604.724 35.8331 605.013 35.4261 605.209 34.9062C605.41 34.3864 605.51 33.7812 605.51 33.0909C605.51 32.4091 605.412 31.8125 605.216 31.3011C605.02 30.7898 604.732 30.3913 604.353 30.1058C603.974 29.8203 603.505 29.6776 602.947 29.6776C602.371 29.6776 601.892 29.8267 601.508 30.125C601.125 30.4233 600.835 30.8303 600.639 31.3459C600.447 31.8615 600.351 32.4432 600.351 33.0909C600.351 33.7472 600.449 34.3374 600.645 34.8615C600.841 35.3857 601.131 35.8011 601.515 36.108C601.903 36.4105 602.38 36.5618 602.947 36.5618Z" fill="#1DD100"/>
<path d="M502.833 29.8333C503.452 29.8333 504.046 30.0792 504.483 30.5168C504.921 30.9543 505.167 31.5478 505.167 32.1667V34.5H516.833V32.1667C516.833 31.5478 517.079 30.9543 517.517 30.5168C517.954 30.0792 518.548 29.8333 519.167 29.8333C519.786 29.8333 520.379 30.0792 520.817 30.5168C521.254 30.9543 521.5 31.5478 521.5 32.1667V36.8333C521.5 37.4522 521.254 38.0457 520.817 38.4832C520.379 38.9208 519.786 39.1667 519.167 39.1667H502.833C502.214 39.1667 501.621 38.9208 501.183 38.4832C500.746 38.0457 500.5 37.4522 500.5 36.8333V32.1667C500.5 31.5478 500.746 30.9543 501.183 30.5168C501.621 30.0792 502.214 29.8333 502.833 29.8333Z" fill="#1DD100"/>
<path d="M502.833 29.8333V24C502.833 23.0717 503.202 22.1815 503.858 21.5251C504.515 20.8687 505.405 20.5 506.333 20.5H515.667C516.595 20.5 517.485 20.8687 518.142 21.5251C518.798 22.1815 519.167 23.0717 519.167 24V29.8333" fill="#1DD100"/>
<path d="M504 39.1667V41.5Z" fill="#1DD100"/>
<path d="M518 39.1667V41.5Z" fill="#1DD100"/>
<path d="M502.833 29.8333C503.452 29.8333 504.046 30.0792 504.483 30.5168C504.921 30.9543 505.167 31.5478 505.167 32.1667V34.5H516.833V32.1667C516.833 31.5478 517.079 30.9543 517.517 30.5168C517.954 30.0792 518.548 29.8333 519.167 29.8333M502.833 29.8333C502.214 29.8333 501.621 30.0792 501.183 30.5168C500.746 30.9543 500.5 31.5478 500.5 32.1667V36.8333C500.5 37.4522 500.746 38.0457 501.183 38.4832C501.621 38.9208 502.214 39.1667 502.833 39.1667H519.167C519.786 39.1667 520.379 38.9208 520.817 38.4832C521.254 38.0457 521.5 37.4522 521.5 36.8333V32.1667C521.5 31.5478 521.254 30.9543 520.817 30.5168C520.379 30.0792 519.786 29.8333 519.167 29.8333M502.833 29.8333V24C502.833 23.0717 503.202 22.1815 503.858 21.5251C504.515 20.8687 505.405 20.5 506.333 20.5H515.667C516.595 20.5 517.485 20.8687 518.142 21.5251C518.798 22.1815 519.167 23.0717 519.167 24V29.8333M504 39.1667V41.5M518 39.1667V41.5" stroke="#1DD100" stroke-width="2" stroke-linecap="round" stroke-linejoin="round"/>
</svg>
