<svg width="971" height="138" viewBox="0 0 971 138" fill="none" xmlns="http://www.w3.org/2000/svg">
<mask id="path-1-inside-1_6_27" fill="white">
<path d="M0 24C0 10.7452 10.7452 0 24 0H284C297.255 0 308 10.7452 308 24V114C308 127.255 297.255 138 284 138H24C10.7452 138 0 127.255 0 114V24Z"/>
</mask>
<path d="M0 24C0 10.7452 10.7452 0 24 0H284C297.255 0 308 10.7452 308 24V114C308 127.255 297.255 138 284 138H24C10.7452 138 0 127.255 0 114V24Z" fill="white"/>
<path d="M0 0H308H0ZM308 114C308 128.912 295.912 141 281 141H27C12.0883 141 0 128.912 0 114C0 125.598 10.7452 135 24 135H284C297.255 135 308 125.598 308 114ZM0 138V0V138ZM308 0V138V0Z" fill="#1DD100" mask="url(#path-1-inside-1_6_27)"/>
<path d="M53.3333 93V90.3333C53.3333 88.9188 53.8952 87.5623 54.8954 86.5621C55.8956 85.5619 57.2522 85 58.6667 85H69.3333C70.7478 85 72.1044 85.5619 73.1046 86.5621C74.1048 87.5623 74.6667 88.9188 74.6667 90.3333V93M77.3333 63.6667H82.6667C84.0812 63.6667 85.4377 64.2286 86.4379 65.2288C87.4381 66.229 88 67.5855 88 69V71.6667M40 71.6667V69C40 67.5855 40.5619 66.229 41.5621 65.2288C42.5623 64.2286 43.9188 63.6667 45.3333 63.6667H50.6667M58.6667 71.6667C58.6667 73.0812 59.2286 74.4377 60.2288 75.4379C61.229 76.4381 62.5855 77 64 77C65.4145 77 66.771 76.4381 67.7712 75.4379C68.7714 74.4377 69.3333 73.0812 69.3333 71.6667C69.3333 70.2522 68.7714 68.8956 67.7712 67.8954C66.771 66.8952 65.4145 66.3333 64 66.3333C62.5855 66.3333 61.229 66.8952 60.2288 67.8954C59.2286 68.8956 58.6667 70.2522 58.6667 71.6667ZM72 50.3333C72 51.7478 72.5619 53.1044 73.5621 54.1046C74.5623 55.1048 75.9188 55.6667 77.3333 55.6667C78.7478 55.6667 80.1044 55.1048 81.1046 54.1046C82.1048 53.1044 82.6667 51.7478 82.6667 50.3333C82.6667 48.9188 82.1048 47.5623 81.1046 46.5621C80.1044 45.5619 78.7478 45 77.3333 45C75.9188 45 74.5623 45.5619 73.5621 46.5621C72.5619 47.5623 72 48.9188 72 50.3333ZM45.3333 50.3333C45.3333 51.7478 45.8952 53.1044 46.8954 54.1046C47.8956 55.1048 49.2522 55.6667 50.6667 55.6667C52.0812 55.6667 53.4377 55.1048 54.4379 54.1046C55.4381 53.1044 56 51.7478 56 50.3333C56 48.9188 55.4381 47.5623 54.4379 46.5621C53.4377 45.5619 52.0812 45 50.6667 45C49.2522 45 47.8956 45.5619 46.8954 46.5621C45.8952 47.5623 45.3333 48.9188 45.3333 50.3333Z" stroke="#1DD100" stroke-width="4" stroke-linecap="round" stroke-linejoin="round"/>
<path d="M123.944 67.358C122.138 67.358 120.527 67.0256 119.112 66.3608C117.706 65.696 116.589 64.7798 115.763 63.6122C114.936 62.4446 114.506 61.1065 114.471 59.598H119.841C119.9 60.6122 120.327 61.4347 121.119 62.0653C121.912 62.696 122.854 63.0114 123.944 63.0114C124.814 63.0114 125.581 62.8196 126.246 62.4361C126.919 62.044 127.443 61.5028 127.818 60.8125C128.202 60.1136 128.393 59.3125 128.393 58.4091C128.393 57.4886 128.197 56.679 127.805 55.9801C127.422 55.2812 126.889 54.7358 126.207 54.3438C125.525 53.9517 124.746 53.7514 123.868 53.7429C123.101 53.7429 122.355 53.9006 121.631 54.2159C120.915 54.5312 120.356 54.9616 119.956 55.5071L115.034 54.625L116.274 40.8182H132.28V45.3438H120.838L120.16 51.902H120.314C120.774 51.2543 121.469 50.7173 122.398 50.2912C123.327 49.8651 124.366 49.652 125.517 49.652C127.094 49.652 128.5 50.0227 129.736 50.7642C130.971 51.5057 131.947 52.5241 132.663 53.8196C133.379 55.1065 133.733 56.5895 133.724 58.2685C133.733 60.0327 133.324 61.6009 132.497 62.973C131.679 64.3366 130.532 65.4105 129.058 66.1946C127.592 66.9702 125.888 67.358 123.944 67.358ZM147.851 67.5753C145.652 67.5668 143.76 67.0256 142.175 65.9517C140.598 64.8778 139.383 63.3224 138.531 61.2855C137.687 59.2486 137.27 56.7983 137.278 53.9347C137.278 51.0795 137.7 48.6463 138.544 46.6349C139.396 44.6236 140.611 43.0937 142.187 42.0455C143.773 40.9886 145.66 40.4602 147.851 40.4602C150.041 40.4602 151.925 40.9886 153.501 42.0455C155.086 43.1023 156.305 44.6364 157.157 46.6477C158.01 48.6506 158.432 51.0795 158.423 53.9347C158.423 56.8068 157.997 59.2614 157.145 61.2983C156.301 63.3352 155.091 64.8906 153.514 65.9645C151.937 67.0384 150.05 67.5753 147.851 67.5753ZM147.851 62.9858C149.351 62.9858 150.548 62.2315 151.443 60.723C152.338 59.2145 152.781 56.9517 152.773 53.9347C152.773 51.9489 152.568 50.2955 152.159 48.9744C151.758 47.6534 151.187 46.6605 150.446 45.9957C149.713 45.331 148.848 44.9986 147.851 44.9986C146.359 44.9986 145.166 45.7443 144.271 47.2358C143.376 48.7273 142.925 50.9602 142.916 53.9347C142.916 55.946 143.116 57.625 143.517 58.9716C143.926 60.3097 144.501 61.3153 145.243 61.9886C145.984 62.6534 146.854 62.9858 147.851 62.9858ZM172.636 67.5753C170.437 67.5668 168.545 67.0256 166.96 65.9517C165.383 64.8778 164.169 63.3224 163.316 61.2855C162.472 59.2486 162.055 56.7983 162.063 53.9347C162.063 51.0795 162.485 48.6463 163.329 46.6349C164.181 44.6236 165.396 43.0937 166.972 42.0455C168.558 40.9886 170.445 40.4602 172.636 40.4602C174.826 40.4602 176.71 40.9886 178.286 42.0455C179.872 43.1023 181.09 44.6364 181.943 46.6477C182.795 48.6506 183.217 51.0795 183.208 53.9347C183.208 56.8068 182.782 59.2614 181.93 61.2983C181.086 63.3352 179.876 64.8906 178.299 65.9645C176.722 67.0384 174.835 67.5753 172.636 67.5753ZM172.636 62.9858C174.136 62.9858 175.333 62.2315 176.228 60.723C177.123 59.2145 177.566 56.9517 177.558 53.9347C177.558 51.9489 177.353 50.2955 176.944 48.9744C176.544 47.6534 175.972 46.6605 175.231 45.9957C174.498 45.331 173.633 44.9986 172.636 44.9986C171.144 44.9986 169.951 45.7443 169.056 47.2358C168.161 48.7273 167.71 50.9602 167.701 53.9347C167.701 55.946 167.901 57.625 168.302 58.9716C168.711 60.3097 169.286 61.3153 170.028 61.9886C170.769 62.6534 171.639 62.9858 172.636 62.9858ZM187.309 67V40.8182H192.844V52.3622H193.189L202.611 40.8182H209.246L199.53 52.5412L209.361 67H202.739L195.567 56.2358L192.844 59.5597V67H187.309ZM218.218 63.0114V44.9091H222.794V63.0114H218.218ZM211.455 56.2486V51.6719H229.557V56.2486H211.455Z" fill="#030712"/>
<path d="M113.585 102V88.9091H118.009C119.031 88.9091 119.871 89.0838 120.527 89.4332C121.183 89.7784 121.669 90.2536 121.984 90.8587C122.3 91.4638 122.457 92.152 122.457 92.9233C122.457 93.6946 122.3 94.3786 121.984 94.9751C121.669 95.5717 121.185 96.0405 120.533 96.3814C119.881 96.718 119.048 96.8864 118.034 96.8864H114.455V95.4545H117.983C118.682 95.4545 119.244 95.3523 119.67 95.1477C120.101 94.9432 120.412 94.6534 120.604 94.2784C120.8 93.8991 120.898 93.4474 120.898 92.9233C120.898 92.3991 120.8 91.9411 120.604 91.549C120.408 91.157 120.094 90.8544 119.664 90.6413C119.234 90.424 118.665 90.3153 117.957 90.3153H115.17V102H113.585ZM119.747 96.1193L122.969 102H121.128L117.957 96.1193H119.747ZM128.905 102.205C127.959 102.205 127.143 101.996 126.457 101.578C125.775 101.156 125.249 100.568 124.878 99.8139C124.512 99.0554 124.329 98.1733 124.329 97.1676C124.329 96.1619 124.512 95.2756 124.878 94.5085C125.249 93.7372 125.765 93.1364 126.425 92.706C127.09 92.2713 127.866 92.054 128.752 92.054C129.263 92.054 129.768 92.1392 130.267 92.3097C130.765 92.4801 131.219 92.7571 131.628 93.1406C132.037 93.5199 132.363 94.0227 132.606 94.6491C132.849 95.2756 132.971 96.0469 132.971 96.9631V97.6023H125.403V96.2983H131.437C131.437 95.7443 131.326 95.25 131.104 94.8153C130.887 94.3807 130.576 94.0376 130.171 93.7862C129.77 93.5348 129.297 93.4091 128.752 93.4091C128.151 93.4091 127.631 93.5582 127.192 93.8565C126.758 94.1506 126.423 94.5341 126.189 95.0071C125.954 95.4801 125.837 95.9872 125.837 96.5284V97.3977C125.837 98.1392 125.965 98.7678 126.221 99.2834C126.481 99.7947 126.841 100.185 127.301 100.453C127.761 100.717 128.296 100.849 128.905 100.849C129.302 100.849 129.66 100.794 129.979 100.683C130.303 100.568 130.582 100.398 130.817 100.172C131.051 99.9418 131.232 99.6562 131.36 99.3153L132.817 99.7244C132.664 100.219 132.406 100.653 132.044 101.028C131.682 101.399 131.234 101.689 130.702 101.898C130.169 102.102 129.57 102.205 128.905 102.205ZM139.229 105.886C138.5 105.886 137.873 105.793 137.349 105.605C136.825 105.422 136.388 105.179 136.039 104.876C135.694 104.578 135.419 104.259 135.214 103.918L136.416 103.074C136.552 103.253 136.725 103.457 136.934 103.688C137.143 103.922 137.428 104.124 137.79 104.295C138.157 104.469 138.636 104.557 139.229 104.557C140.021 104.557 140.675 104.365 141.191 103.982C141.706 103.598 141.964 102.997 141.964 102.179V100.185H141.836C141.726 100.364 141.568 100.585 141.363 100.849C141.163 101.109 140.873 101.342 140.494 101.546C140.119 101.746 139.612 101.847 138.973 101.847C138.18 101.847 137.469 101.659 136.838 101.284C136.211 100.909 135.715 100.364 135.349 99.6477C134.986 98.9318 134.805 98.0625 134.805 97.0398C134.805 96.0341 134.982 95.1584 135.336 94.4126C135.689 93.6626 136.182 93.0831 136.812 92.674C137.443 92.2607 138.172 92.054 138.998 92.054C139.638 92.054 140.145 92.1605 140.52 92.3736C140.899 92.5824 141.189 92.821 141.389 93.0895C141.594 93.3537 141.751 93.571 141.862 93.7415H142.015V92.1818H143.473V102.281C143.473 103.125 143.281 103.811 142.898 104.339C142.518 104.872 142.007 105.262 141.363 105.509C140.724 105.761 140.013 105.886 139.229 105.886ZM139.177 100.491C139.782 100.491 140.294 100.353 140.711 100.076C141.129 99.799 141.447 99.4006 141.664 98.8807C141.881 98.3608 141.99 97.7386 141.99 97.0142C141.99 96.3068 141.883 95.6825 141.67 95.1413C141.457 94.6001 141.142 94.1761 140.724 93.8693C140.307 93.5625 139.791 93.4091 139.177 93.4091C138.538 93.4091 138.006 93.571 137.579 93.8949C137.157 94.2187 136.84 94.6534 136.627 95.1989C136.418 95.7443 136.314 96.3494 136.314 97.0142C136.314 97.696 136.42 98.299 136.633 98.8232C136.851 99.343 137.17 99.7521 137.592 100.05C138.018 100.344 138.547 100.491 139.177 100.491ZM146.234 102V92.1818H147.743V102H146.234ZM147.001 90.5455C146.707 90.5455 146.454 90.4453 146.241 90.245C146.032 90.0447 145.927 89.804 145.927 89.5227C145.927 89.2415 146.032 89.0007 146.241 88.8004C146.454 88.6001 146.707 88.5 147.001 88.5C147.295 88.5 147.547 88.6001 147.756 88.8004C147.969 89.0007 148.075 89.2415 148.075 89.5227C148.075 89.804 147.969 90.0447 147.756 90.245C147.547 90.4453 147.295 90.5455 147.001 90.5455ZM157.46 94.3807L156.105 94.7642C156.02 94.5384 155.894 94.3189 155.728 94.1058C155.566 93.8885 155.344 93.7095 155.063 93.5689C154.782 93.4283 154.422 93.358 153.983 93.358C153.382 93.358 152.881 93.4964 152.481 93.7734C152.085 94.0462 151.886 94.3935 151.886 94.8153C151.886 95.1903 152.023 95.4865 152.295 95.7038C152.568 95.9212 152.994 96.1023 153.574 96.2472L155.031 96.6051C155.909 96.8182 156.563 97.1442 156.994 97.5831C157.424 98.0178 157.639 98.5781 157.639 99.2642C157.639 99.8267 157.477 100.33 157.153 100.773C156.834 101.216 156.386 101.565 155.811 101.821C155.236 102.077 154.567 102.205 153.804 102.205C152.803 102.205 151.974 101.987 151.317 101.553C150.661 101.118 150.246 100.483 150.071 99.6477L151.503 99.2898C151.639 99.8182 151.897 100.214 152.276 100.479C152.66 100.743 153.161 100.875 153.778 100.875C154.482 100.875 155.04 100.726 155.453 100.428C155.871 100.125 156.08 99.7628 156.08 99.3409C156.08 99 155.96 98.7145 155.722 98.4844C155.483 98.25 155.116 98.0753 154.622 97.9602L152.986 97.5767C152.087 97.3636 151.426 97.0334 151.004 96.5859C150.587 96.1342 150.378 95.5696 150.378 94.892C150.378 94.3381 150.533 93.848 150.844 93.4219C151.16 92.9957 151.588 92.6612 152.129 92.4183C152.675 92.1754 153.293 92.054 153.983 92.054C154.955 92.054 155.717 92.267 156.271 92.6932C156.83 93.1193 157.226 93.6818 157.46 94.3807ZM164.18 92.1818V93.4602H159.092V92.1818H164.18ZM160.575 89.8295H162.083V99.1875C162.083 99.6136 162.145 99.9332 162.269 100.146C162.396 100.355 162.558 100.496 162.754 100.568C162.955 100.636 163.166 100.67 163.387 100.67C163.553 100.67 163.69 100.662 163.796 100.645C163.903 100.624 163.988 100.607 164.052 100.594L164.359 101.949C164.257 101.987 164.114 102.026 163.931 102.064C163.747 102.107 163.515 102.128 163.234 102.128C162.808 102.128 162.39 102.036 161.981 101.853C161.576 101.67 161.24 101.391 160.971 101.016C160.707 100.641 160.575 100.168 160.575 99.5966V89.8295ZM170.46 102.205C169.514 102.205 168.698 101.996 168.012 101.578C167.33 101.156 166.804 100.568 166.433 99.8139C166.067 99.0554 165.883 98.1733 165.883 97.1676C165.883 96.1619 166.067 95.2756 166.433 94.5085C166.804 93.7372 167.319 93.1364 167.98 92.706C168.645 92.2713 169.42 92.054 170.307 92.054C170.818 92.054 171.323 92.1392 171.822 92.3097C172.32 92.4801 172.774 92.7571 173.183 93.1406C173.592 93.5199 173.918 94.0227 174.161 94.6491C174.404 95.2756 174.525 96.0469 174.525 96.9631V97.6023H166.957V96.2983H172.991C172.991 95.7443 172.881 95.25 172.659 94.8153C172.442 94.3807 172.131 94.0376 171.726 93.7862C171.325 93.5348 170.852 93.4091 170.307 93.4091C169.706 93.4091 169.186 93.5582 168.747 93.8565C168.312 94.1506 167.978 94.5341 167.743 95.0071C167.509 95.4801 167.392 95.9872 167.392 96.5284V97.3977C167.392 98.1392 167.52 98.7678 167.775 99.2834C168.035 99.7947 168.395 100.185 168.856 100.453C169.316 100.717 169.851 100.849 170.46 100.849C170.856 100.849 171.214 100.794 171.534 100.683C171.858 100.568 172.137 100.398 172.371 100.172C172.606 99.9418 172.787 99.6562 172.915 99.3153L174.372 99.7244C174.219 100.219 173.961 100.653 173.599 101.028C173.236 101.399 172.789 101.689 172.256 101.898C171.724 102.102 171.125 102.205 170.46 102.205ZM176.82 102V92.1818H178.278V93.6648H178.38C178.559 93.179 178.883 92.7848 179.351 92.4822C179.82 92.1797 180.349 92.0284 180.937 92.0284C181.047 92.0284 181.186 92.0305 181.352 92.0348C181.518 92.0391 181.644 92.0455 181.729 92.054V93.5881C181.678 93.5753 181.561 93.5561 181.378 93.5305C181.199 93.5007 181.009 93.4858 180.809 93.4858C180.331 93.4858 179.905 93.5859 179.53 93.7862C179.16 93.9822 178.866 94.255 178.648 94.6044C178.435 94.9496 178.329 95.3437 178.329 95.7869V102H176.82ZM187.335 102.205C186.389 102.205 185.573 101.996 184.887 101.578C184.205 101.156 183.679 100.568 183.308 99.8139C182.942 99.0554 182.758 98.1733 182.758 97.1676C182.758 96.1619 182.942 95.2756 183.308 94.5085C183.679 93.7372 184.194 93.1364 184.855 92.706C185.52 92.2713 186.295 92.054 187.182 92.054C187.693 92.054 188.198 92.1392 188.697 92.3097C189.195 92.4801 189.649 92.7571 190.058 93.1406C190.467 93.5199 190.793 94.0227 191.036 94.6491C191.279 95.2756 191.4 96.0469 191.4 96.9631V97.6023H183.832V96.2983H189.866C189.866 95.7443 189.756 95.25 189.534 94.8153C189.317 94.3807 189.006 94.0376 188.601 93.7862C188.2 93.5348 187.727 93.4091 187.182 93.4091C186.581 93.4091 186.061 93.5582 185.622 93.8565C185.187 94.1506 184.853 94.5341 184.618 95.0071C184.384 95.4801 184.267 95.9872 184.267 96.5284V97.3977C184.267 98.1392 184.395 98.7678 184.65 99.2834C184.91 99.7947 185.27 100.185 185.731 100.453C186.191 100.717 186.726 100.849 187.335 100.849C187.731 100.849 188.089 100.794 188.409 100.683C188.733 100.568 189.012 100.398 189.246 100.172C189.481 99.9418 189.662 99.6562 189.79 99.3153L191.247 99.7244C191.094 100.219 190.836 100.653 190.474 101.028C190.111 101.399 189.664 101.689 189.131 101.898C188.599 102.102 188 102.205 187.335 102.205ZM197.403 102.205C196.584 102.205 195.862 101.998 195.236 101.585C194.609 101.167 194.119 100.579 193.765 99.8203C193.412 99.0575 193.235 98.1562 193.235 97.1165C193.235 96.0852 193.412 95.1903 193.765 94.4318C194.119 93.6733 194.611 93.0874 195.242 92.674C195.873 92.2607 196.601 92.054 197.428 92.054C198.067 92.054 198.572 92.1605 198.943 92.3736C199.318 92.5824 199.604 92.821 199.8 93.0895C200 93.3537 200.155 93.571 200.266 93.7415H200.394V88.9091H201.903V102H200.445V100.491H200.266C200.155 100.67 199.998 100.896 199.793 101.169C199.589 101.437 199.297 101.678 198.917 101.891C198.538 102.1 198.033 102.205 197.403 102.205ZM197.607 100.849C198.212 100.849 198.724 100.692 199.141 100.376C199.559 100.057 199.876 99.6158 200.094 99.0533C200.311 98.4865 200.42 97.8324 200.42 97.0909C200.42 96.358 200.313 95.7166 200.1 95.1669C199.887 94.6129 199.572 94.1825 199.154 93.8757C198.736 93.5646 198.221 93.4091 197.607 93.4091C196.968 93.4091 196.435 93.5732 196.009 93.9013C195.587 94.2251 195.27 94.6662 195.057 95.2244C194.848 95.7784 194.743 96.4006 194.743 97.0909C194.743 97.7898 194.85 98.4247 195.063 98.9957C195.28 99.5625 195.6 100.014 196.022 100.351C196.448 100.683 196.976 100.849 197.607 100.849ZM216.125 97.9858V92.1818H217.633V102H216.125V100.338H216.023C215.792 100.837 215.434 101.261 214.949 101.61C214.463 101.955 213.849 102.128 213.108 102.128C212.494 102.128 211.949 101.994 211.471 101.725C210.994 101.452 210.619 101.043 210.346 100.498C210.074 99.9482 209.937 99.2557 209.937 98.4205V92.1818H211.446V98.3182C211.446 99.0341 211.646 99.6051 212.047 100.031C212.452 100.457 212.967 100.67 213.594 100.67C213.969 100.67 214.35 100.575 214.738 100.383C215.13 100.191 215.458 99.897 215.722 99.5007C215.991 99.1044 216.125 98.5994 216.125 97.9858ZM227.351 94.3807L225.996 94.7642C225.911 94.5384 225.785 94.3189 225.619 94.1058C225.457 93.8885 225.235 93.7095 224.954 93.5689C224.673 93.4283 224.312 93.358 223.874 93.358C223.273 93.358 222.772 93.4964 222.371 93.7734C221.975 94.0462 221.777 94.3935 221.777 94.8153C221.777 95.1903 221.913 95.4865 222.186 95.7038C222.459 95.9212 222.885 96.1023 223.464 96.2472L224.922 96.6051C225.8 96.8182 226.454 97.1442 226.884 97.5831C227.315 98.0178 227.53 98.5781 227.53 99.2642C227.53 99.8267 227.368 100.33 227.044 100.773C226.724 101.216 226.277 101.565 225.702 101.821C225.126 102.077 224.457 102.205 223.695 102.205C222.693 102.205 221.864 101.987 221.208 101.553C220.552 101.118 220.136 100.483 219.962 99.6477L221.393 99.2898C221.53 99.8182 221.788 100.214 222.167 100.479C222.55 100.743 223.051 100.875 223.669 100.875C224.372 100.875 224.93 100.726 225.344 100.428C225.761 100.125 225.97 99.7628 225.97 99.3409C225.97 99 225.851 98.7145 225.612 98.4844C225.374 98.25 225.007 98.0753 224.513 97.9602L222.876 97.5767C221.977 97.3636 221.317 97.0334 220.895 96.5859C220.477 96.1342 220.268 95.5696 220.268 94.892C220.268 94.3381 220.424 93.848 220.735 93.4219C221.05 92.9957 221.479 92.6612 222.02 92.4183C222.565 92.1754 223.183 92.054 223.874 92.054C224.845 92.054 225.608 92.267 226.162 92.6932C226.72 93.1193 227.116 93.6818 227.351 94.3807ZM233.917 102.205C232.971 102.205 232.155 101.996 231.469 101.578C230.787 101.156 230.261 100.568 229.89 99.8139C229.524 99.0554 229.34 98.1733 229.34 97.1676C229.34 96.1619 229.524 95.2756 229.89 94.5085C230.261 93.7372 230.776 93.1364 231.437 92.706C232.102 92.2713 232.877 92.054 233.764 92.054C234.275 92.054 234.78 92.1392 235.279 92.3097C235.777 92.4801 236.231 92.7571 236.64 93.1406C237.049 93.5199 237.375 94.0227 237.618 94.6491C237.861 95.2756 237.982 96.0469 237.982 96.9631V97.6023H230.414V96.2983H236.448C236.448 95.7443 236.338 95.25 236.116 94.8153C235.899 94.3807 235.588 94.0376 235.183 93.7862C234.782 93.5348 234.309 93.4091 233.764 93.4091C233.163 93.4091 232.643 93.5582 232.204 93.8565C231.769 94.1506 231.435 94.5341 231.2 95.0071C230.966 95.4801 230.849 95.9872 230.849 96.5284V97.3977C230.849 98.1392 230.977 98.7678 231.232 99.2834C231.492 99.7947 231.852 100.185 232.313 100.453C232.773 100.717 233.308 100.849 233.917 100.849C234.313 100.849 234.671 100.794 234.991 100.683C235.315 100.568 235.594 100.398 235.828 100.172C236.063 99.9418 236.244 99.6562 236.372 99.3153L237.829 99.7244C237.676 100.219 237.418 100.653 237.056 101.028C236.693 101.399 236.246 101.689 235.713 101.898C235.181 102.102 234.582 102.205 233.917 102.205ZM240.277 102V92.1818H241.735V93.6648H241.837C242.016 93.179 242.34 92.7848 242.808 92.4822C243.277 92.1797 243.806 92.0284 244.394 92.0284C244.504 92.0284 244.643 92.0305 244.809 92.0348C244.975 92.0391 245.101 92.0455 245.186 92.054V93.5881C245.135 93.5753 245.018 93.5561 244.835 93.5305C244.656 93.5007 244.466 93.4858 244.266 93.4858C243.789 93.4858 243.362 93.5859 242.987 93.7862C242.617 93.9822 242.323 94.255 242.105 94.6044C241.892 94.9496 241.786 95.3437 241.786 95.7869V102H240.277ZM253.929 94.3807L252.574 94.7642C252.489 94.5384 252.363 94.3189 252.197 94.1058C252.035 93.8885 251.813 93.7095 251.532 93.5689C251.251 93.4283 250.891 93.358 250.452 93.358C249.851 93.358 249.35 93.4964 248.95 93.7734C248.553 94.0462 248.355 94.3935 248.355 94.8153C248.355 95.1903 248.491 95.4865 248.764 95.7038C249.037 95.9212 249.463 96.1023 250.043 96.2472L251.5 96.6051C252.378 96.8182 253.032 97.1442 253.462 97.5831C253.893 98.0178 254.108 98.5781 254.108 99.2642C254.108 99.8267 253.946 100.33 253.622 100.773C253.303 101.216 252.855 101.565 252.28 101.821C251.705 102.077 251.036 102.205 250.273 102.205C249.271 102.205 248.442 101.987 247.786 101.553C247.13 101.118 246.714 100.483 246.54 99.6477L247.972 99.2898C248.108 99.8182 248.366 100.214 248.745 100.479C249.129 100.743 249.629 100.875 250.247 100.875C250.95 100.875 251.509 100.726 251.922 100.428C252.339 100.125 252.548 99.7628 252.548 99.3409C252.548 99 252.429 98.7145 252.19 98.4844C251.952 98.25 251.585 98.0753 251.091 97.9602L249.455 97.5767C248.555 97.3636 247.895 97.0334 247.473 96.5859C247.055 96.1342 246.847 95.5696 246.847 94.892C246.847 94.3381 247.002 93.848 247.313 93.4219C247.629 92.9957 248.057 92.6612 248.598 92.4183C249.143 92.1754 249.761 92.054 250.452 92.054C251.423 92.054 252.186 92.267 252.74 92.6932C253.298 93.1193 253.695 93.6818 253.929 94.3807Z" fill="#030712" fill-opacity="0.6"/>
<mask id="path-6-inside-2_6_27" fill="white">
<path d="M331 24C331 10.7452 341.745 0 355 0H615C628.255 0 639 10.7452 639 24V114C639 127.255 628.255 138 615 138H355C341.745 138 331 127.255 331 114V24Z"/>
</mask>
<path d="M331 24C331 10.7452 341.745 0 355 0H615C628.255 0 639 10.7452 639 24V114C639 127.255 628.255 138 615 138H355C341.745 138 331 127.255 331 114V24Z" fill="white"/>
<path d="M331 0H639H331ZM639 114C639 128.912 626.912 141 612 141H358C343.088 141 331 128.912 331 114C331 125.598 341.745 135 355 135H615C628.255 135 639 125.598 639 114ZM331 138V0V138ZM639 0V138V0Z" fill="#1DD100" mask="url(#path-6-inside-2_6_27)"/>
<path d="M403 50.3334V55.6667M403 66.3334V71.6667M403 82.3334V87.6667M376.333 50.3334H413.667C415.081 50.3334 416.438 50.8953 417.438 51.8955C418.438 52.8957 419 54.2522 419 55.6667V63.6667C417.586 63.6667 416.229 64.2286 415.229 65.2288C414.229 66.229 413.667 67.5856 413.667 69C413.667 70.4145 414.229 71.7711 415.229 72.7713C416.229 73.7715 417.586 74.3334 419 74.3334V82.3334C419 83.7479 418.438 85.1044 417.438 86.1046C416.438 87.1048 415.081 87.6667 413.667 87.6667H376.333C374.919 87.6667 373.562 87.1048 372.562 86.1046C371.562 85.1044 371 83.7479 371 82.3334V74.3334C372.414 74.3334 373.771 73.7715 374.771 72.7713C375.771 71.7711 376.333 70.4145 376.333 69C376.333 67.5856 375.771 66.229 374.771 65.2288C373.771 64.2286 372.414 63.6667 371 63.6667V55.6667C371 54.2522 371.562 52.8957 372.562 51.8955C373.562 50.8953 374.919 50.3334 376.333 50.3334Z" stroke="#1DD100" stroke-width="4" stroke-linecap="round" stroke-linejoin="round"/>
<path d="M456.513 40.8182V67H450.977V46.0724H450.824L444.828 49.831V44.9219L451.31 40.8182H456.513ZM464.564 67.3324C463.72 67.3324 462.995 67.0341 462.39 66.4375C461.794 65.8324 461.495 65.108 461.495 64.2642C461.495 63.429 461.794 62.7131 462.39 62.1165C462.995 61.5199 463.72 61.2216 464.564 61.2216C465.382 61.2216 466.098 61.5199 466.711 62.1165C467.325 62.7131 467.632 63.429 467.632 64.2642C467.632 64.8267 467.487 65.3423 467.197 65.8111C466.916 66.2713 466.545 66.642 466.085 66.9233C465.625 67.196 465.118 67.3324 464.564 67.3324ZM472.103 67L482.957 45.5227V45.3438H470.313V40.8182H488.684V45.4077L477.817 67H472.103ZM506.307 40.8182V67H500.861V40.8182H506.307ZM516.269 67.3707C515.016 67.3707 513.9 67.1534 512.919 66.7188C511.939 66.2756 511.164 65.6236 510.593 64.7628C510.03 63.8935 509.749 62.8111 509.749 61.5156C509.749 60.4247 509.949 59.5085 510.35 58.767C510.75 58.0256 511.296 57.429 511.986 56.9773C512.676 56.5256 513.461 56.1847 514.338 55.9545C515.225 55.7244 516.154 55.5625 517.125 55.4688C518.267 55.3494 519.188 55.2386 519.887 55.1364C520.586 55.0256 521.093 54.8636 521.408 54.6506C521.723 54.4375 521.881 54.1222 521.881 53.7045V53.6278C521.881 52.8182 521.625 52.1918 521.114 51.7486C520.611 51.3054 519.895 51.0838 518.966 51.0838C517.986 51.0838 517.206 51.3011 516.627 51.7358C516.047 52.1619 515.664 52.6989 515.476 53.3466L510.439 52.9375C510.695 51.7443 511.198 50.7131 511.948 49.8438C512.698 48.9659 513.665 48.2926 514.85 47.8239C516.043 47.3466 517.424 47.108 518.992 47.108C520.083 47.108 521.127 47.2358 522.124 47.4915C523.13 47.7472 524.02 48.1435 524.796 48.6804C525.58 49.2173 526.198 49.9077 526.65 50.7514C527.101 51.5866 527.327 52.5881 527.327 53.7557V67H522.162V64.277H522.009C521.694 64.8906 521.272 65.4318 520.743 65.9006C520.215 66.3608 519.58 66.723 518.838 66.9872C518.097 67.2429 517.24 67.3707 516.269 67.3707ZM517.828 63.6122C518.63 63.6122 519.337 63.4545 519.951 63.1392C520.564 62.8153 521.046 62.3807 521.395 61.8352C521.745 61.2898 521.919 60.6719 521.919 59.9815V57.8977C521.749 58.0085 521.515 58.1108 521.216 58.2045C520.926 58.2898 520.598 58.3707 520.232 58.4474C519.865 58.5156 519.499 58.5795 519.132 58.6392C518.766 58.6903 518.434 58.7372 518.135 58.7798C517.496 58.8736 516.938 59.0227 516.461 59.2273C515.983 59.4318 515.613 59.7088 515.348 60.0582C515.084 60.3991 514.952 60.8253 514.952 61.3366C514.952 62.0781 515.221 62.6449 515.757 63.0369C516.303 63.4205 516.993 63.6122 517.828 63.6122ZM540.424 67.3835C538.413 67.3835 536.683 66.9574 535.234 66.1051C533.794 65.2443 532.686 64.0511 531.91 62.5256C531.143 61 530.76 59.2443 530.76 57.2585C530.76 55.2472 531.147 53.483 531.923 51.9659C532.707 50.4403 533.819 49.2514 535.26 48.3991C536.7 47.5384 538.413 47.108 540.399 47.108C542.112 47.108 543.612 47.419 544.899 48.0412C546.186 48.6634 547.204 49.5369 547.954 50.6619C548.704 51.7869 549.118 53.108 549.194 54.625H544.055C543.91 53.6449 543.527 52.8565 542.904 52.2599C542.291 51.6548 541.485 51.3523 540.488 51.3523C539.645 51.3523 538.907 51.5824 538.277 52.0426C537.654 52.4943 537.169 53.1548 536.819 54.0241C536.47 54.8935 536.295 55.946 536.295 57.1818C536.295 58.4347 536.466 59.5 536.806 60.3778C537.156 61.2557 537.646 61.9247 538.277 62.3849C538.907 62.8452 539.645 63.0753 540.488 63.0753C541.11 63.0753 541.669 62.9474 542.163 62.6918C542.666 62.4361 543.079 62.0653 543.403 61.5795C543.735 61.0852 543.953 60.4929 544.055 59.8026H549.194C549.109 61.3026 548.7 62.6236 547.967 63.7656C547.243 64.8991 546.241 65.7855 544.963 66.4247C543.684 67.0639 542.172 67.3835 540.424 67.3835ZM557.616 61.3494L557.629 54.8168H558.421L564.711 47.3636H570.962L562.512 57.233H561.221L557.616 61.3494ZM552.681 67V40.8182H558.127V67H552.681ZM564.954 67L559.175 58.4474L562.806 54.5994L571.333 67H564.954ZM589.972 52.9631L584.987 53.2699C584.901 52.8437 584.718 52.4602 584.437 52.1193C584.156 51.7699 583.785 51.4929 583.325 51.2884C582.873 51.0753 582.332 50.9688 581.701 50.9688C580.857 50.9688 580.146 51.1477 579.566 51.5057C578.987 51.8551 578.697 52.3239 578.697 52.9119C578.697 53.3807 578.884 53.777 579.259 54.1009C579.634 54.4247 580.278 54.6847 581.19 54.8807L584.744 55.5966C586.653 55.9886 588.076 56.6193 589.013 57.4886C589.951 58.358 590.42 59.5 590.42 60.9148C590.42 62.2017 590.04 63.331 589.282 64.3026C588.532 65.2741 587.501 66.0327 586.188 66.5781C584.884 67.1151 583.38 67.3835 581.675 67.3835C579.076 67.3835 577.005 66.8423 575.462 65.7599C573.928 64.669 573.029 63.1861 572.765 61.3111L578.121 61.0298C578.283 61.8224 578.675 62.4276 579.298 62.8452C579.92 63.2543 580.717 63.4588 581.688 63.4588C582.643 63.4588 583.41 63.2756 583.989 62.9091C584.577 62.5341 584.876 62.0526 584.884 61.4645C584.876 60.9702 584.667 60.5653 584.258 60.25C583.849 59.9261 583.218 59.679 582.366 59.5085L578.965 58.831C577.048 58.4474 575.62 57.7827 574.683 56.8366C573.754 55.8906 573.289 54.6847 573.289 53.2188C573.289 51.9574 573.63 50.8707 574.312 49.9588C575.002 49.0469 575.969 48.3438 577.214 47.8494C578.467 47.3551 579.933 47.108 581.612 47.108C584.092 47.108 586.043 47.6321 587.467 48.6804C588.898 49.7287 589.734 51.1562 589.972 52.9631Z" fill="#030712"/>
<path d="M443.869 90.3153V88.9091H453.688V90.3153H449.571V102H447.986V90.3153H443.869ZM455.93 102V92.1818H457.438V102H455.93ZM456.697 90.5455C456.403 90.5455 456.149 90.4453 455.936 90.245C455.727 90.0447 455.623 89.804 455.623 89.5227C455.623 89.2415 455.727 89.0007 455.936 88.8004C456.149 88.6001 456.403 88.5 456.697 88.5C456.991 88.5 457.242 88.6001 457.451 88.8004C457.664 89.0007 457.77 89.2415 457.77 89.5227C457.77 89.804 457.664 90.0447 457.451 90.245C457.242 90.4453 456.991 90.5455 456.697 90.5455ZM464.19 102.205C463.269 102.205 462.477 101.987 461.812 101.553C461.147 101.118 460.636 100.519 460.278 99.7564C459.92 98.9936 459.741 98.1222 459.741 97.142C459.741 96.1449 459.924 95.2649 460.29 94.5021C460.661 93.7351 461.177 93.1364 461.837 92.706C462.502 92.2713 463.278 92.054 464.164 92.054C464.854 92.054 465.477 92.1818 466.031 92.4375C466.585 92.6932 467.038 93.0511 467.392 93.5114C467.746 93.9716 467.965 94.5085 468.05 95.1222H466.542C466.427 94.6747 466.171 94.2784 465.775 93.9332C465.383 93.5838 464.854 93.4091 464.19 93.4091C463.602 93.4091 463.086 93.5625 462.643 93.8693C462.204 94.1719 461.861 94.6001 461.614 95.1541C461.371 95.7038 461.249 96.3494 461.249 97.0909C461.249 97.8494 461.369 98.5099 461.607 99.0724C461.85 99.6349 462.191 100.072 462.63 100.383C463.073 100.694 463.593 100.849 464.19 100.849C464.582 100.849 464.938 100.781 465.257 100.645C465.577 100.509 465.847 100.312 466.069 100.057C466.29 99.8011 466.448 99.4943 466.542 99.1364H468.05C467.965 99.7159 467.754 100.238 467.418 100.702C467.085 101.163 466.644 101.529 466.094 101.802C465.549 102.07 464.914 102.205 464.19 102.205ZM471.662 98.4205L471.636 96.554H471.943L476.239 92.1818H478.105L473.528 96.8097H473.401L471.662 98.4205ZM470.256 102V88.9091H471.764V102H470.256ZM476.494 102L472.659 97.142L473.733 96.0938L478.412 102H476.494ZM483.759 102.205C482.813 102.205 481.997 101.996 481.311 101.578C480.629 101.156 480.103 100.568 479.732 99.8139C479.365 99.0554 479.182 98.1733 479.182 97.1676C479.182 96.1619 479.365 95.2756 479.732 94.5085C480.103 93.7372 480.618 93.1364 481.279 92.706C481.944 92.2713 482.719 92.054 483.605 92.054C484.117 92.054 484.622 92.1392 485.12 92.3097C485.619 92.4801 486.073 92.7571 486.482 93.1406C486.891 93.5199 487.217 94.0227 487.46 94.6491C487.703 95.2756 487.824 96.0469 487.824 96.9631V97.6023H480.256V96.2983H486.29C486.29 95.7443 486.179 95.25 485.958 94.8153C485.74 94.3807 485.429 94.0376 485.025 93.7862C484.624 93.5348 484.151 93.4091 483.605 93.4091C483.005 93.4091 482.485 93.5582 482.046 93.8565C481.611 94.1506 481.277 94.5341 481.042 95.0071C480.808 95.4801 480.691 95.9872 480.691 96.5284V97.3977C480.691 98.1392 480.819 98.7678 481.074 99.2834C481.334 99.7947 481.694 100.185 482.154 100.453C482.615 100.717 483.15 100.849 483.759 100.849C484.155 100.849 484.513 100.794 484.833 100.683C485.157 100.568 485.436 100.398 485.67 100.172C485.904 99.9418 486.086 99.6562 486.213 99.3153L487.671 99.7244C487.517 100.219 487.26 100.653 486.897 101.028C486.535 101.399 486.088 101.689 485.555 101.898C485.022 102.102 484.424 102.205 483.759 102.205ZM494.389 92.1818V93.4602H489.301V92.1818H494.389ZM490.784 89.8295H492.292V99.1875C492.292 99.6136 492.354 99.9332 492.478 100.146C492.605 100.355 492.767 100.496 492.963 100.568C493.164 100.636 493.375 100.67 493.596 100.67C493.762 100.67 493.899 100.662 494.005 100.645C494.112 100.624 494.197 100.607 494.261 100.594L494.568 101.949C494.466 101.987 494.323 102.026 494.14 102.064C493.956 102.107 493.724 102.128 493.443 102.128C493.017 102.128 492.599 102.036 492.19 101.853C491.785 101.67 491.449 101.391 491.18 101.016C490.916 100.641 490.784 100.168 490.784 99.5966V89.8295ZM503.437 94.3807L502.082 94.7642C501.996 94.5384 501.871 94.3189 501.705 94.1058C501.543 93.8885 501.321 93.7095 501.04 93.5689C500.759 93.4283 500.398 93.358 499.96 93.358C499.359 93.358 498.858 93.4964 498.457 93.7734C498.061 94.0462 497.863 94.3935 497.863 94.8153C497.863 95.1903 497.999 95.4865 498.272 95.7038C498.545 95.9212 498.971 96.1023 499.55 96.2472L501.008 96.6051C501.886 96.8182 502.54 97.1442 502.97 97.5831C503.401 98.0178 503.616 98.5781 503.616 99.2642C503.616 99.8267 503.454 100.33 503.13 100.773C502.81 101.216 502.363 101.565 501.788 101.821C501.212 102.077 500.543 102.205 499.781 102.205C498.779 102.205 497.95 101.987 497.294 101.553C496.638 101.118 496.222 100.483 496.048 99.6477L497.479 99.2898C497.616 99.8182 497.874 100.214 498.253 100.479C498.636 100.743 499.137 100.875 499.755 100.875C500.458 100.875 501.016 100.726 501.43 100.428C501.847 100.125 502.056 99.7628 502.056 99.3409C502.056 99 501.937 98.7145 501.698 98.4844C501.46 98.25 501.093 98.0753 500.599 97.9602L498.962 97.5767C498.063 97.3636 497.403 97.0334 496.981 96.5859C496.563 96.1342 496.354 95.5696 496.354 94.892C496.354 94.3381 496.51 93.848 496.821 93.4219C497.136 92.9957 497.565 92.6612 498.106 92.4183C498.651 92.1754 499.269 92.054 499.96 92.054C500.931 92.054 501.694 92.267 502.248 92.6932C502.806 93.1193 503.202 93.6818 503.437 94.3807ZM517.904 94.3807L516.548 94.7642C516.463 94.5384 516.338 94.3189 516.171 94.1058C516.009 93.8885 515.788 93.7095 515.507 93.5689C515.225 93.4283 514.865 93.358 514.426 93.358C513.825 93.358 513.325 93.4964 512.924 93.7734C512.528 94.0462 512.33 94.3935 512.33 94.8153C512.33 95.1903 512.466 95.4865 512.739 95.7038C513.012 95.9212 513.438 96.1023 514.017 96.2472L515.475 96.6051C516.352 96.8182 517.007 97.1442 517.437 97.5831C517.867 98.0178 518.083 98.5781 518.083 99.2642C518.083 99.8267 517.921 100.33 517.597 100.773C517.277 101.216 516.83 101.565 516.254 101.821C515.679 102.077 515.01 102.205 514.247 102.205C513.246 102.205 512.417 101.987 511.761 101.553C511.105 101.118 510.689 100.483 510.514 99.6477L511.946 99.2898C512.083 99.8182 512.34 100.214 512.72 100.479C513.103 100.743 513.604 100.875 514.222 100.875C514.925 100.875 515.483 100.726 515.896 100.428C516.314 100.125 516.523 99.7628 516.523 99.3409C516.523 99 516.404 98.7145 516.165 98.4844C515.926 98.25 515.56 98.0753 515.066 97.9602L513.429 97.5767C512.53 97.3636 511.869 97.0334 511.448 96.5859C511.03 96.1342 510.821 95.5696 510.821 94.892C510.821 94.3381 510.977 93.848 511.288 93.4219C511.603 92.9957 512.031 92.6612 512.573 92.4183C513.118 92.1754 513.736 92.054 514.426 92.054C515.398 92.054 516.161 92.267 516.715 92.6932C517.273 93.1193 517.669 93.6818 517.904 94.3807ZM524.342 102.205C523.456 102.205 522.678 101.994 522.009 101.572C521.344 101.15 520.824 100.56 520.449 99.8011C520.078 99.0426 519.893 98.1562 519.893 97.142C519.893 96.1193 520.078 95.2266 520.449 94.4638C520.824 93.701 521.344 93.1087 522.009 92.6868C522.678 92.2649 523.456 92.054 524.342 92.054C525.228 92.054 526.004 92.2649 526.669 92.6868C527.338 93.1087 527.858 93.701 528.228 94.4638C528.603 95.2266 528.791 96.1193 528.791 97.142C528.791 98.1562 528.603 99.0426 528.228 99.8011C527.858 100.56 527.338 101.15 526.669 101.572C526.004 101.994 525.228 102.205 524.342 102.205ZM524.342 100.849C525.015 100.849 525.569 100.677 526.004 100.332C526.439 99.9865 526.76 99.5327 526.969 98.9702C527.178 98.4077 527.282 97.7983 527.282 97.142C527.282 96.4858 527.178 95.8743 526.969 95.3075C526.76 94.7408 526.439 94.2827 526.004 93.9332C525.569 93.5838 525.015 93.4091 524.342 93.4091C523.669 93.4091 523.115 93.5838 522.68 93.9332C522.245 94.2827 521.924 94.7408 521.715 95.3075C521.506 95.8743 521.402 96.4858 521.402 97.142C521.402 97.7983 521.506 98.4077 521.715 98.9702C521.924 99.5327 522.245 99.9865 522.68 100.332C523.115 100.677 523.669 100.849 524.342 100.849ZM532.602 88.9091V102H531.094V88.9091H532.602ZM539.072 102.205C538.254 102.205 537.532 101.998 536.906 101.585C536.279 101.167 535.789 100.579 535.435 99.8203C535.082 99.0575 534.905 98.1562 534.905 97.1165C534.905 96.0852 535.082 95.1903 535.435 94.4318C535.789 93.6733 536.281 93.0874 536.912 92.674C537.543 92.2607 538.271 92.054 539.098 92.054C539.737 92.054 540.242 92.1605 540.613 92.3736C540.988 92.5824 541.273 92.821 541.469 93.0895C541.67 93.3537 541.825 93.571 541.936 93.7415H542.064V88.9091H543.572V102H542.115V100.491H541.936C541.825 100.67 541.668 100.896 541.463 101.169C541.259 101.437 540.967 101.678 540.587 101.891C540.208 102.1 539.703 102.205 539.072 102.205ZM539.277 100.849C539.882 100.849 540.393 100.692 540.811 100.376C541.229 100.057 541.546 99.6158 541.763 99.0533C541.981 98.4865 542.089 97.8324 542.089 97.0909C542.089 96.358 541.983 95.7166 541.77 95.1669C541.557 94.6129 541.241 94.1825 540.824 93.8757C540.406 93.5646 539.891 93.4091 539.277 93.4091C538.638 93.4091 538.105 93.5732 537.679 93.9013C537.257 94.2251 536.94 94.6662 536.727 95.2244C536.518 95.7784 536.413 96.4006 536.413 97.0909C536.413 97.7898 536.52 98.4247 536.733 98.9957C536.95 99.5625 537.27 100.014 537.692 100.351C538.118 100.683 538.646 100.849 539.277 100.849Z" fill="#030712" fill-opacity="0.6"/>
<mask id="path-11-inside-3_6_27" fill="white">
<path d="M663 24C663 10.7452 673.745 0 687 0H947C960.255 0 971 10.7452 971 24V114C971 127.255 960.255 138 947 138H687C673.745 138 663 127.255 663 114V24Z"/>
</mask>
<path d="M663 24C663 10.7452 673.745 0 687 0H947C960.255 0 971 10.7452 971 24V114C971 127.255 960.255 138 947 138H687C673.745 138 663 127.255 663 114V24Z" fill="white"/>
<path d="M663 0H971H663ZM971 114C971 128.912 958.912 141 944 141H690C675.088 141 663 128.912 663 114C663 125.598 673.745 135 687 135H947C960.255 135 971 125.598 971 114ZM663 138V0V138ZM971 0V138V0Z" fill="#1DD100" mask="url(#path-11-inside-3_6_27)"/>
<path d="M737.667 82.3333C737.667 83.7478 738.229 85.1044 739.229 86.1046C740.229 87.1048 741.586 87.6667 743 87.6667C744.414 87.6667 745.771 87.1048 746.771 86.1046C747.771 85.1044 748.333 83.7478 748.333 82.3333M737.667 82.3333C737.667 80.9188 738.229 79.5623 739.229 78.5621C740.229 77.5619 741.586 77 743 77C744.414 77 745.771 77.5619 746.771 78.5621C747.771 79.5623 748.333 80.9188 748.333 82.3333M737.667 82.3333H716.333M748.333 82.3333H753.667V69M721.667 50.3333H740.333C747.696 50.3333 753.667 58.6907 753.667 69M753.667 69H741.667L737.667 50.3333M720.333 63.6667H740.333M727 50.3333V63.6667M708.333 61V90.3333M703 47.6667C703 46.9594 703.281 46.2811 703.781 45.781C704.281 45.281 704.959 45 705.667 45H711C711.707 45 712.386 45.281 712.886 45.781C713.386 46.2811 713.667 46.9594 713.667 47.6667V58.3333C713.667 59.0406 713.386 59.7189 712.886 60.219C712.386 60.719 711.707 61 711 61H705.667C704.959 61 704.281 60.719 703.781 60.219C703.281 59.7189 703 59.0406 703 58.3333V47.6667Z" stroke="#1DD100" stroke-width="4" stroke-linecap="round" stroke-linejoin="round"/>
<path d="M786.889 67.358C784.92 67.358 783.169 67.0384 781.635 66.3991C780.109 65.7514 778.912 64.8693 778.043 63.7528C777.173 62.6364 776.739 61.3707 776.739 59.956C776.739 58.8651 776.986 57.8636 777.48 56.9517C777.983 56.0312 778.665 55.2685 779.526 54.6634C780.386 54.0497 781.349 53.6577 782.415 53.4872V53.3082C781.017 53.027 779.884 52.3494 779.014 51.2756C778.145 50.1932 777.71 48.9361 777.71 47.5043C777.71 46.1491 778.107 44.9432 778.899 43.8864C779.692 42.821 780.778 41.9858 782.159 41.3807C783.548 40.767 785.125 40.4602 786.889 40.4602C788.653 40.4602 790.226 40.767 791.607 41.3807C792.996 41.9943 794.087 42.8338 794.879 43.8991C795.672 44.956 796.072 46.1577 796.081 47.5043C796.072 48.9446 795.629 50.2017 794.751 51.2756C793.874 52.3494 792.749 53.027 791.376 53.3082V53.4872C792.425 53.6577 793.375 54.0497 794.227 54.6634C795.088 55.2685 795.77 56.0312 796.273 56.9517C796.784 57.8636 797.044 58.8651 797.053 59.956C797.044 61.3707 796.605 62.6364 795.736 63.7528C794.866 64.8693 793.665 65.7514 792.131 66.3991C790.605 67.0384 788.858 67.358 786.889 67.358ZM786.889 63.2926C787.767 63.2926 788.534 63.1349 789.19 62.8196C789.847 62.4957 790.358 62.0526 790.724 61.4901C791.099 60.919 791.287 60.2628 791.287 59.5213C791.287 58.7628 791.095 58.0938 790.712 57.5142C790.328 56.9261 789.808 56.4659 789.152 56.1335C788.496 55.7926 787.741 55.6222 786.889 55.6222C786.045 55.6222 785.291 55.7926 784.626 56.1335C783.962 56.4659 783.438 56.9261 783.054 57.5142C782.679 58.0938 782.491 58.7628 782.491 59.5213C782.491 60.2628 782.675 60.919 783.041 61.4901C783.408 62.0526 783.923 62.4957 784.588 62.8196C785.253 63.1349 786.02 63.2926 786.889 63.2926ZM786.889 51.5952C787.622 51.5952 788.274 51.446 788.845 51.1477C789.416 50.8494 789.864 50.4361 790.188 49.9077C790.511 49.3793 790.673 48.7699 790.673 48.0795C790.673 47.3977 790.511 46.8011 790.188 46.2898C789.864 45.7699 789.42 45.3651 788.858 45.0753C788.295 44.777 787.639 44.6278 786.889 44.6278C786.148 44.6278 785.491 44.777 784.92 45.0753C784.349 45.3651 783.902 45.7699 783.578 46.2898C783.263 46.8011 783.105 47.3977 783.105 48.0795C783.105 48.7699 783.267 49.3793 783.591 49.9077C783.915 50.4361 784.362 50.8494 784.933 51.1477C785.504 51.446 786.156 51.5952 786.889 51.5952ZM811.189 67.5753C808.99 67.5668 807.098 67.0256 805.512 65.9517C803.936 64.8778 802.721 63.3224 801.869 61.2855C801.025 59.2486 800.608 56.7983 800.616 53.9347C800.616 51.0795 801.038 48.6463 801.882 46.6349C802.734 44.6236 803.949 43.0937 805.525 42.0455C807.11 40.9886 808.998 40.4602 811.189 40.4602C813.379 40.4602 815.262 40.9886 816.839 42.0455C818.424 43.1023 819.643 44.6364 820.495 46.6477C821.348 48.6506 821.77 51.0795 821.761 53.9347C821.761 56.8068 821.335 59.2614 820.483 61.2983C819.639 63.3352 818.429 64.8906 816.852 65.9645C815.275 67.0384 813.387 67.5753 811.189 67.5753ZM811.189 62.9858C812.689 62.9858 813.886 62.2315 814.781 60.723C815.676 59.2145 816.119 56.9517 816.11 53.9347C816.11 51.9489 815.906 50.2955 815.497 48.9744C815.096 47.6534 814.525 46.6605 813.784 45.9957C813.051 45.331 812.186 44.9986 811.189 44.9986C809.697 44.9986 808.504 45.7443 807.609 47.2358C806.714 48.7273 806.262 50.9602 806.254 53.9347C806.254 55.946 806.454 57.625 806.855 58.9716C807.264 60.3097 807.839 61.3153 808.581 61.9886C809.322 62.6534 810.191 62.9858 811.189 62.9858ZM825.862 67V40.8182H831.397V52.3622H831.742L841.164 40.8182H847.799L838.083 52.5412L847.914 67H841.292L834.12 56.2358L831.397 59.5597V67H825.862ZM856.77 63.0114V44.9091H861.347V63.0114H856.77ZM850.007 56.2486V51.6719H868.11V56.2486H850.007Z" fill="#030712"/>
<path d="M776.585 102V88.9091H781.009C782.031 88.9091 782.871 89.0838 783.527 89.4332C784.183 89.7784 784.669 90.2536 784.984 90.8587C785.3 91.4638 785.457 92.152 785.457 92.9233C785.457 93.6946 785.3 94.3786 784.984 94.9751C784.669 95.5717 784.185 96.0405 783.533 96.3814C782.881 96.718 782.048 96.8864 781.034 96.8864H777.455V95.4545H780.983C781.682 95.4545 782.244 95.3523 782.67 95.1477C783.101 94.9432 783.412 94.6534 783.604 94.2784C783.8 93.8991 783.898 93.4474 783.898 92.9233C783.898 92.3991 783.8 91.9411 783.604 91.549C783.408 91.157 783.094 90.8544 782.664 90.6413C782.234 90.424 781.665 90.3153 780.957 90.3153H778.17V102H776.585ZM782.747 96.1193L785.969 102H784.128L780.957 96.1193H782.747ZM791.905 102.205C790.959 102.205 790.143 101.996 789.457 101.578C788.775 101.156 788.249 100.568 787.878 99.8139C787.512 99.0554 787.329 98.1733 787.329 97.1676C787.329 96.1619 787.512 95.2756 787.878 94.5085C788.249 93.7372 788.765 93.1364 789.425 92.706C790.09 92.2713 790.866 92.054 791.752 92.054C792.263 92.054 792.768 92.1392 793.267 92.3097C793.765 92.4801 794.219 92.7571 794.628 93.1406C795.037 93.5199 795.363 94.0227 795.606 94.6491C795.849 95.2756 795.971 96.0469 795.971 96.9631V97.6023H788.403V96.2983H794.437C794.437 95.7443 794.326 95.25 794.104 94.8153C793.887 94.3807 793.576 94.0376 793.171 93.7862C792.77 93.5348 792.297 93.4091 791.752 93.4091C791.151 93.4091 790.631 93.5582 790.192 93.8565C789.758 94.1506 789.423 94.5341 789.189 95.0071C788.954 95.4801 788.837 95.9872 788.837 96.5284V97.3977C788.837 98.1392 788.965 98.7678 789.221 99.2834C789.481 99.7947 789.841 100.185 790.301 100.453C790.761 100.717 791.296 100.849 791.905 100.849C792.302 100.849 792.66 100.794 792.979 100.683C793.303 100.568 793.582 100.398 793.817 100.172C794.051 99.9418 794.232 99.6562 794.36 99.3153L795.817 99.7244C795.664 100.219 795.406 100.653 795.044 101.028C794.682 101.399 794.234 101.689 793.702 101.898C793.169 102.102 792.57 102.205 791.905 102.205ZM799.774 96.0938V102H798.265V92.1818H799.723V93.7159H799.851C800.081 93.2173 800.43 92.8168 800.899 92.5142C801.368 92.2074 801.973 92.054 802.714 92.054C803.379 92.054 803.961 92.1903 804.459 92.4631C804.958 92.7315 805.346 93.1406 805.623 93.6903C805.9 94.2358 806.038 94.9261 806.038 95.7614V102H804.53V95.8636C804.53 95.0923 804.329 94.4915 803.929 94.0611C803.528 93.6264 802.979 93.4091 802.28 93.4091C801.798 93.4091 801.368 93.5135 800.988 93.7223C800.613 93.9311 800.317 94.2358 800.1 94.6364C799.883 95.0369 799.774 95.5227 799.774 96.0938ZM813.065 92.1818V93.4602H807.977V92.1818H813.065ZM809.46 89.8295H810.968V99.1875C810.968 99.6136 811.03 99.9332 811.153 100.146C811.281 100.355 811.443 100.496 811.639 100.568C811.839 100.636 812.05 100.67 812.272 100.67C812.438 100.67 812.575 100.662 812.681 100.645C812.788 100.624 812.873 100.607 812.937 100.594L813.244 101.949C813.141 101.987 812.999 102.026 812.815 102.064C812.632 102.107 812.4 102.128 812.119 102.128C811.692 102.128 811.275 102.036 810.866 101.853C810.461 101.67 810.124 101.391 809.856 101.016C809.592 100.641 809.46 100.168 809.46 99.5966V89.8295ZM818.223 102.23C817.601 102.23 817.036 102.113 816.529 101.879C816.022 101.64 815.619 101.297 815.321 100.849C815.023 100.398 814.874 99.8523 814.874 99.2131C814.874 98.6506 814.984 98.1946 815.206 97.8452C815.428 97.4915 815.724 97.2145 816.094 97.0142C816.465 96.8139 816.874 96.6648 817.322 96.5668C817.773 96.4645 818.227 96.3835 818.683 96.3239C819.28 96.2472 819.763 96.1896 820.134 96.1513C820.509 96.1087 820.782 96.0384 820.952 95.9403C821.127 95.8423 821.214 95.6719 821.214 95.429V95.3778C821.214 94.7472 821.042 94.2571 820.697 93.9077C820.356 93.5582 819.838 93.3835 819.143 93.3835C818.423 93.3835 817.859 93.5412 817.45 93.8565C817.04 94.1719 816.753 94.5085 816.587 94.8665L815.155 94.3551C815.411 93.7585 815.751 93.294 816.178 92.9616C816.608 92.625 817.077 92.3906 817.584 92.2585C818.095 92.1222 818.598 92.054 819.092 92.054C819.408 92.054 819.77 92.0923 820.179 92.169C820.592 92.2415 820.991 92.3928 821.374 92.6229C821.762 92.853 822.084 93.2003 822.339 93.6648C822.595 94.1293 822.723 94.7514 822.723 95.5312V102H821.214V100.67H821.138C821.036 100.884 820.865 101.112 820.626 101.354C820.388 101.597 820.07 101.804 819.674 101.974C819.278 102.145 818.794 102.23 818.223 102.23ZM818.453 100.875C819.05 100.875 819.553 100.758 819.962 100.523C820.375 100.289 820.686 99.9865 820.895 99.6158C821.108 99.245 821.214 98.8551 821.214 98.446V97.0653C821.151 97.142 821.01 97.2124 820.793 97.2763C820.58 97.3359 820.332 97.3892 820.051 97.4361C819.774 97.4787 819.504 97.517 819.239 97.5511C818.979 97.581 818.768 97.6065 818.607 97.6278C818.214 97.679 817.848 97.7621 817.507 97.8771C817.17 97.9879 816.898 98.1562 816.689 98.3821C816.484 98.6037 816.382 98.9062 816.382 99.2898C816.382 99.8139 816.576 100.21 816.964 100.479C817.356 100.743 817.852 100.875 818.453 100.875ZM826.985 88.9091V102H825.476V88.9091H826.985ZM834.81 105.682V92.1818H836.268V93.7415H836.447C836.558 93.571 836.711 93.3537 836.907 93.0895C837.107 92.821 837.393 92.5824 837.763 92.3736C838.138 92.1605 838.646 92.054 839.285 92.054C840.112 92.054 840.84 92.2607 841.471 92.674C842.102 93.0874 842.594 93.6733 842.947 94.4318C843.301 95.1903 843.478 96.0852 843.478 97.1165C843.478 98.1562 843.301 99.0575 842.947 99.8203C842.594 100.579 842.104 101.167 841.477 101.585C840.851 101.998 840.129 102.205 839.31 102.205C838.68 102.205 838.175 102.1 837.795 101.891C837.416 101.678 837.124 101.437 836.92 101.169C836.715 100.896 836.558 100.67 836.447 100.491H836.319V105.682H834.81ZM836.293 97.0909C836.293 97.8324 836.402 98.4865 836.619 99.0533C836.837 99.6158 837.154 100.057 837.572 100.376C837.989 100.692 838.501 100.849 839.106 100.849C839.737 100.849 840.263 100.683 840.685 100.351C841.111 100.014 841.43 99.5625 841.643 98.9957C841.861 98.4247 841.969 97.7898 841.969 97.0909C841.969 96.4006 841.863 95.7784 841.65 95.2244C841.441 94.6662 841.124 94.2251 840.697 93.9013C840.276 93.5732 839.745 93.4091 839.106 93.4091C838.492 93.4091 837.977 93.5646 837.559 93.8757C837.141 94.1825 836.826 94.6129 836.613 95.1669C836.4 95.7166 836.293 96.358 836.293 97.0909ZM848.668 102.23C848.046 102.23 847.482 102.113 846.974 101.879C846.467 101.64 846.065 101.297 845.766 100.849C845.468 100.398 845.319 99.8523 845.319 99.2131C845.319 98.6506 845.43 98.1946 845.651 97.8452C845.873 97.4915 846.169 97.2145 846.54 97.0142C846.911 96.8139 847.32 96.6648 847.767 96.5668C848.219 96.4645 848.673 96.3835 849.129 96.3239C849.725 96.2472 850.209 96.1896 850.58 96.1513C850.955 96.1087 851.227 96.0384 851.398 95.9403C851.572 95.8423 851.66 95.6719 851.66 95.429V95.3778C851.66 94.7472 851.487 94.2571 851.142 93.9077C850.801 93.5582 850.283 93.3835 849.589 93.3835C848.869 93.3835 848.304 93.5412 847.895 93.8565C847.486 94.1719 847.198 94.5085 847.032 94.8665L845.6 94.3551C845.856 93.7585 846.197 93.294 846.623 92.9616C847.053 92.625 847.522 92.3906 848.029 92.2585C848.54 92.1222 849.043 92.054 849.538 92.054C849.853 92.054 850.215 92.0923 850.624 92.169C851.038 92.2415 851.436 92.3928 851.82 92.6229C852.207 92.853 852.529 93.2003 852.785 93.6648C853.04 94.1293 853.168 94.7514 853.168 95.5312V102H851.66V100.67H851.583C851.481 100.884 851.31 101.112 851.072 101.354C850.833 101.597 850.516 101.804 850.119 101.974C849.723 102.145 849.239 102.23 848.668 102.23ZM848.898 100.875C849.495 100.875 849.998 100.758 850.407 100.523C850.82 100.289 851.131 99.9865 851.34 99.6158C851.553 99.245 851.66 98.8551 851.66 98.446V97.0653C851.596 97.142 851.455 97.2124 851.238 97.2763C851.025 97.3359 850.778 97.3892 850.496 97.4361C850.219 97.4787 849.949 97.517 849.685 97.5511C849.425 97.581 849.214 97.6065 849.052 97.6278C848.66 97.679 848.293 97.7621 847.952 97.8771C847.616 97.9879 847.343 98.1562 847.134 98.3821C846.93 98.6037 846.827 98.9062 846.827 99.2898C846.827 99.8139 847.021 100.21 847.409 100.479C847.801 100.743 848.298 100.875 848.898 100.875ZM855.922 102V92.1818H857.379V93.6648H857.481C857.66 93.179 857.984 92.7848 858.453 92.4822C858.922 92.1797 859.45 92.0284 860.038 92.0284C860.149 92.0284 860.287 92.0305 860.454 92.0348C860.62 92.0391 860.746 92.0455 860.831 92.054V93.5881C860.78 93.5753 860.662 93.5561 860.479 93.5305C860.3 93.5007 860.111 93.4858 859.91 93.4858C859.433 93.4858 859.007 93.5859 858.632 93.7862C858.261 93.9822 857.967 94.255 857.75 94.6044C857.537 94.9496 857.43 95.3437 857.43 95.7869V102H855.922ZM867.504 92.1818V93.4602H862.416V92.1818H867.504ZM863.899 89.8295H865.407V99.1875C865.407 99.6136 865.469 99.9332 865.593 100.146C865.721 100.355 865.883 100.496 866.079 100.568C866.279 100.636 866.49 100.67 866.711 100.67C866.878 100.67 867.014 100.662 867.121 100.645C867.227 100.624 867.312 100.607 867.376 100.594L867.683 101.949C867.581 101.987 867.438 102.026 867.255 102.064C867.072 102.107 866.839 102.128 866.558 102.128C866.132 102.128 865.714 102.036 865.305 101.853C864.9 101.67 864.564 101.391 864.295 101.016C864.031 100.641 863.899 100.168 863.899 99.5966V89.8295ZM871.282 96.0938V102H869.773V92.1818H871.231V93.7159H871.358C871.589 93.2173 871.938 92.8168 872.407 92.5142C872.876 92.2074 873.481 92.054 874.222 92.054C874.887 92.054 875.469 92.1903 875.967 92.4631C876.466 92.7315 876.854 93.1406 877.131 93.6903C877.407 94.2358 877.546 94.9261 877.546 95.7614V102H876.037V95.8636C876.037 95.0923 875.837 94.4915 875.437 94.0611C875.036 93.6264 874.486 93.4091 873.787 93.4091C873.306 93.4091 872.876 93.5135 872.496 93.7223C872.121 93.9311 871.825 94.2358 871.608 94.6364C871.39 95.0369 871.282 95.5227 871.282 96.0938ZM884.419 102.205C883.473 102.205 882.657 101.996 881.971 101.578C881.289 101.156 880.763 100.568 880.392 99.8139C880.026 99.0554 879.842 98.1733 879.842 97.1676C879.842 96.1619 880.026 95.2756 880.392 94.5085C880.763 93.7372 881.278 93.1364 881.939 92.706C882.604 92.2713 883.379 92.054 884.266 92.054C884.777 92.054 885.282 92.1392 885.781 92.3097C886.279 92.4801 886.733 92.7571 887.142 93.1406C887.551 93.5199 887.877 94.0227 888.12 94.6491C888.363 95.2756 888.484 96.0469 888.484 96.9631V97.6023H880.916V96.2983H886.95C886.95 95.7443 886.839 95.25 886.618 94.8153C886.401 94.3807 886.089 94.0376 885.685 93.7862C885.284 93.5348 884.811 93.4091 884.266 93.4091C883.665 93.4091 883.145 93.5582 882.706 93.8565C882.271 94.1506 881.937 94.5341 881.702 95.0071C881.468 95.4801 881.351 95.9872 881.351 96.5284V97.3977C881.351 98.1392 881.479 98.7678 881.734 99.2834C881.994 99.7947 882.354 100.185 882.815 100.453C883.275 100.717 883.81 100.849 884.419 100.849C884.815 100.849 885.173 100.794 885.493 100.683C885.817 100.568 886.096 100.398 886.33 100.172C886.565 99.9418 886.746 99.6562 886.874 99.3153L888.331 99.7244C888.178 100.219 887.92 100.653 887.558 101.028C887.195 101.399 886.748 101.689 886.215 101.898C885.683 102.102 885.084 102.205 884.419 102.205ZM890.779 102V92.1818H892.237V93.6648H892.339C892.518 93.179 892.842 92.7848 893.31 92.4822C893.779 92.1797 894.308 92.0284 894.896 92.0284C895.006 92.0284 895.145 92.0305 895.311 92.0348C895.477 92.0391 895.603 92.0455 895.688 92.054V93.5881C895.637 93.5753 895.52 93.5561 895.337 93.5305C895.158 93.5007 894.968 93.4858 894.768 93.4858C894.29 93.4858 893.864 93.5859 893.489 93.7862C893.119 93.9822 892.825 94.255 892.607 94.6044C892.394 94.9496 892.288 95.3437 892.288 95.7869V102H890.779ZM904.431 94.3807L903.076 94.7642C902.991 94.5384 902.865 94.3189 902.699 94.1058C902.537 93.8885 902.315 93.7095 902.034 93.5689C901.753 93.4283 901.393 93.358 900.954 93.358C900.353 93.358 899.852 93.4964 899.452 93.7734C899.055 94.0462 898.857 94.3935 898.857 94.8153C898.857 95.1903 898.993 95.4865 899.266 95.7038C899.539 95.9212 899.965 96.1023 900.545 96.2472L902.002 96.6051C902.88 96.8182 903.534 97.1442 903.964 97.5831C904.395 98.0178 904.61 98.5781 904.61 99.2642C904.61 99.8267 904.448 100.33 904.124 100.773C903.805 101.216 903.357 101.565 902.782 101.821C902.206 102.077 901.537 102.205 900.775 102.205C899.773 102.205 898.944 101.987 898.288 101.553C897.632 101.118 897.216 100.483 897.042 99.6477L898.474 99.2898C898.61 99.8182 898.868 100.214 899.247 100.479C899.631 100.743 900.131 100.875 900.749 100.875C901.452 100.875 902.01 100.726 902.424 100.428C902.841 100.125 903.05 99.7628 903.05 99.3409C903.05 99 902.931 98.7145 902.692 98.4844C902.454 98.25 902.087 98.0753 901.593 97.9602L899.956 97.5767C899.057 97.3636 898.397 97.0334 897.975 96.5859C897.557 96.1342 897.349 95.5696 897.349 94.892C897.349 94.3381 897.504 93.848 897.815 93.4219C898.131 92.9957 898.559 92.6612 899.1 92.4183C899.645 92.1754 900.263 92.054 900.954 92.054C901.925 92.054 902.688 92.267 903.242 92.6932C903.8 93.1193 904.197 93.6818 904.431 94.3807Z" fill="#030712" fill-opacity="0.6"/>
</svg>
