<svg width="573" height="220" viewBox="0 0 573 220" fill="none" xmlns="http://www.w3.org/2000/svg">
<rect y="-6.10352e-05" width="573" height="220" rx="24" fill="#FFBF0F"/>
<path d="M318 -3.81596e-07C318 3.15172 318.621 6.27259 319.827 9.1844C321.033 12.0962 322.801 14.742 325.029 16.9706C327.258 19.1992 329.904 20.967 332.816 22.1731C335.727 23.3792 338.848 24 342 24C345.152 24 348.273 23.3792 351.184 22.1731C354.096 20.967 356.742 19.1992 358.971 16.9706C361.199 14.742 362.967 12.0962 364.173 9.1844C365.379 6.27259 366 3.15173 366 1.90735e-06L318 -3.81596e-07Z" fill="white"/>
<path d="M366 220C366 216.848 365.379 213.727 364.173 210.815C362.967 207.904 361.199 205.258 358.971 203.029C356.742 200.801 354.096 199.033 351.184 197.827C348.273 196.621 345.152 196 342 196C338.848 196 335.727 196.621 332.816 197.827C329.904 199.033 327.258 200.801 325.029 203.029C322.801 205.258 321.033 207.904 319.827 210.815C318.621 213.727 318 216.848 318 220L366 220Z" fill="white"/>
<line x1="343" y1="32" x2="343" y2="188" stroke="white" stroke-width="2" stroke-dasharray="5 5"/>
<path d="M67.1932 55.909V84.9999H59.2955V63.1818H59.125L52.7614 66.9886V60.284L59.9205 55.909H67.1932ZM84.8139 85.3977C82.5791 85.3977 80.5952 85.0047 78.8622 84.2187C77.1387 83.4232 75.7798 82.3295 74.7855 80.9374C73.8007 79.5454 73.2988 77.945 73.2798 76.1363H80.9503C80.9787 77.1401 81.367 77.9403 82.1151 78.5369C82.8726 79.1335 83.7723 79.4318 84.8139 79.4318C85.6188 79.4318 86.3291 79.2613 86.9446 78.9204C87.5601 78.57 88.0431 78.0776 88.3935 77.4431C88.7438 76.8087 88.9143 76.07 88.9048 75.2272C88.9143 74.3749 88.7438 73.6363 88.3935 73.0113C88.0431 72.3768 87.5601 71.8891 86.9446 71.5482C86.3291 71.1979 85.6188 71.0227 84.8139 71.0227C83.9806 71.0227 83.2088 71.2263 82.4986 71.6335C81.7978 72.0312 81.2817 72.5852 80.9503 73.2954L74.0185 71.9318L75.1548 55.909H94.7003V62.2158H81.6321L81.0639 68.6363H81.2344C81.6889 67.7556 82.4749 67.0265 83.5923 66.4488C84.7098 65.8617 86.0071 65.5681 87.4844 65.5681C89.2173 65.5681 90.7609 65.9706 92.1151 66.7755C93.4787 67.5804 94.5535 68.6931 95.3395 70.1136C96.1349 71.5246 96.5279 73.1533 96.5185 74.9999C96.5279 77.0265 96.045 78.8257 95.0696 80.3977C94.1037 81.9602 92.7448 83.1865 90.9929 84.0766C89.241 84.9573 87.1813 85.3977 84.8139 85.3977ZM116.572 79.5454V78.0113C116.572 76.7802 116.837 75.6439 117.367 74.6022C117.907 73.5605 118.688 72.7225 119.711 72.088C120.734 71.4535 121.979 71.1363 123.447 71.1363C124.952 71.1363 126.217 71.4488 127.239 72.0738C128.272 72.6988 129.053 73.5321 129.583 74.5738C130.113 75.6155 130.379 76.7613 130.379 78.0113V79.5454C130.379 80.7765 130.109 81.9128 129.569 82.9545C129.039 83.9962 128.257 84.8342 127.225 85.4687C126.193 86.1032 124.933 86.4204 123.447 86.4204C121.96 86.4204 120.705 86.1032 119.683 85.4687C118.66 84.8342 117.883 83.9962 117.353 82.9545C116.832 81.9128 116.572 80.7765 116.572 79.5454ZM121.515 78.0113V79.5454C121.515 80.0852 121.647 80.6202 121.913 81.1505C122.187 81.6713 122.699 81.9318 123.447 81.9318C124.233 81.9318 124.749 81.6761 124.995 81.1647C125.251 80.6533 125.379 80.1136 125.379 79.5454V78.0113C125.379 77.4431 125.26 76.8939 125.023 76.3636C124.787 75.8333 124.261 75.5681 123.447 75.5681C122.699 75.5681 122.187 75.8333 121.913 76.3636C121.647 76.8939 121.515 77.4431 121.515 78.0113ZM101.344 62.8977V61.3636C101.344 60.1136 101.614 58.9677 102.154 57.9261C102.703 56.8844 103.489 56.0511 104.512 55.4261C105.535 54.8011 106.771 54.4886 108.219 54.4886C109.725 54.4886 110.989 54.8011 112.012 55.4261C113.044 56.0511 113.826 56.8844 114.356 57.9261C114.886 58.9677 115.151 60.1136 115.151 61.3636V62.8977C115.151 64.1477 114.881 65.2888 114.342 66.321C113.811 67.3532 113.03 68.177 111.998 68.7926C110.966 69.4081 109.706 69.7158 108.219 69.7158C106.733 69.7158 105.478 69.4033 104.455 68.7783C103.433 68.1533 102.656 67.3247 102.126 66.2926C101.605 65.2604 101.344 64.1287 101.344 62.8977ZM106.344 61.3636V62.8977C106.344 63.4658 106.477 64.0056 106.742 64.517C107.007 65.0283 107.5 65.284 108.219 65.284C109.005 65.284 109.522 65.0283 109.768 64.517C110.023 64.0056 110.151 63.4658 110.151 62.8977V61.3636C110.151 60.7954 110.033 60.2461 109.796 59.7158C109.559 59.1855 109.034 58.9204 108.219 58.9204C107.471 58.9204 106.969 59.195 106.714 59.7443C106.468 60.284 106.344 60.8238 106.344 61.3636ZM103.759 84.9999L123.759 55.909H127.793L107.793 84.9999H103.759ZM171.643 70.4545C171.643 73.6931 171.013 76.4251 169.754 78.6505C168.494 80.8664 166.794 82.5473 164.654 83.6931C162.514 84.8295 160.128 85.3977 157.495 85.3977C154.844 85.3977 152.448 84.8247 150.308 83.6789C148.177 82.5236 146.482 80.838 145.222 78.6221C143.972 76.3967 143.347 73.6742 143.347 70.4545C143.347 67.2158 143.972 64.4886 145.222 62.2727C146.482 60.0473 148.177 58.3664 150.308 57.2301C152.448 56.0842 154.844 55.5113 157.495 55.5113C160.128 55.5113 162.514 56.0842 164.654 57.2301C166.794 58.3664 168.494 60.0473 169.754 62.2727C171.013 64.4886 171.643 67.2158 171.643 70.4545ZM163.518 70.4545C163.518 68.7121 163.286 67.2443 162.822 66.0511C162.367 64.8484 161.69 63.9393 160.79 63.3238C159.9 62.6988 158.802 62.3863 157.495 62.3863C156.188 62.3863 155.085 62.6988 154.185 63.3238C153.295 63.9393 152.618 64.8484 152.154 66.0511C151.7 67.2443 151.472 68.7121 151.472 70.4545C151.472 72.1969 151.7 73.6694 152.154 74.8721C152.618 76.0653 153.295 76.9744 154.185 77.5994C155.085 78.2149 156.188 78.5227 157.495 78.5227C158.802 78.5227 159.9 78.2149 160.79 77.5994C161.69 76.9744 162.367 76.0653 162.822 74.8721C163.286 73.6694 163.518 72.1969 163.518 70.4545ZM175.297 84.9999V55.909H195.751V62.2727H183.195V67.2727H194.501V73.6363H183.195V84.9999H175.297ZM198.656 84.9999V55.909H219.111V62.2727H206.554V67.2727H217.861V73.6363H206.554V84.9999H198.656ZM57.0795 121.213C56.0142 121.213 55.0909 120.979 54.3097 120.51C53.5284 120.041 52.9223 119.385 52.4915 118.543C52.0653 117.7 51.8523 116.715 51.8523 115.588C51.8523 114.461 52.0653 113.474 52.4915 112.626C52.9223 111.779 53.5284 111.121 54.3097 110.652C55.0909 110.183 56.0142 109.949 57.0795 109.949C58.1449 109.949 59.0682 110.183 59.8494 110.652C60.6307 111.121 61.2344 111.779 61.6605 112.626C62.0914 113.474 62.3068 114.461 62.3068 115.588C62.3068 116.715 62.0914 117.7 61.6605 118.543C61.2344 119.385 60.6307 120.041 59.8494 120.51C59.0682 120.979 58.1449 121.213 57.0795 121.213ZM57.0938 119.153C57.6714 119.153 58.1544 118.995 58.5426 118.677C58.9309 118.356 59.2197 117.925 59.4091 117.385C59.6032 116.845 59.7003 116.244 59.7003 115.581C59.7003 114.913 59.6032 114.31 59.4091 113.77C59.2197 113.225 58.9309 112.792 58.5426 112.47C58.1544 112.148 57.6714 111.987 57.0938 111.987C56.5019 111.987 56.0095 112.148 55.6165 112.47C55.2282 112.792 54.937 113.225 54.7429 113.77C54.5535 114.31 54.4588 114.913 54.4588 115.581C54.4588 116.244 54.5535 116.845 54.7429 117.385C54.937 117.925 55.2282 118.356 55.6165 118.677C56.0095 118.995 56.5019 119.153 57.0938 119.153ZM67.06 114.608V121H64.489V110.091H66.9464V111.945H67.0742C67.3252 111.334 67.7253 110.848 68.2745 110.489C68.8285 110.129 69.5127 109.949 70.3271 109.949C71.0799 109.949 71.7357 110.11 72.2944 110.432C72.8578 110.754 73.2934 111.22 73.6012 111.831C73.9137 112.442 74.0676 113.183 74.0629 114.054V121H71.4918V114.452C71.4918 113.722 71.3024 113.152 70.9237 112.74C70.5496 112.328 70.0311 112.122 69.3683 112.122C68.9184 112.122 68.5183 112.222 68.168 112.42C67.8223 112.615 67.5501 112.896 67.3512 113.266C67.1571 113.635 67.06 114.082 67.06 114.608ZM83.2354 125.091C82.8851 125.091 82.5607 125.062 82.2624 125.006C81.9689 124.954 81.7345 124.892 81.5593 124.821L82.1559 122.818C82.5299 122.927 82.8638 122.979 83.1573 122.974C83.4509 122.97 83.7089 122.877 83.9315 122.697C84.1587 122.522 84.3505 122.229 84.5067 121.817L84.7269 121.227L80.771 110.091H83.4982L86.0124 118.329H86.1261L88.6474 110.091H91.3817L87.0138 122.321C86.8103 122.899 86.5404 123.393 86.2042 123.805C85.868 124.222 85.4561 124.539 84.9684 124.757C84.4854 124.98 83.9078 125.091 83.2354 125.091ZM97.5483 121.213C96.483 121.213 95.5597 120.979 94.7784 120.51C93.9972 120.041 93.3911 119.385 92.9602 118.543C92.5341 117.7 92.321 116.715 92.321 115.588C92.321 114.461 92.5341 113.474 92.9602 112.626C93.3911 111.779 93.9972 111.121 94.7784 110.652C95.5597 110.183 96.483 109.949 97.5483 109.949C98.6136 109.949 99.5369 110.183 100.318 110.652C101.099 111.121 101.703 111.779 102.129 112.626C102.56 113.474 102.776 114.461 102.776 115.588C102.776 116.715 102.56 117.7 102.129 118.543C101.703 119.385 101.099 120.041 100.318 120.51C99.5369 120.979 98.6136 121.213 97.5483 121.213ZM97.5625 119.153C98.1402 119.153 98.6231 118.995 99.0114 118.677C99.3996 118.356 99.6884 117.925 99.8778 117.385C100.072 116.845 100.169 116.244 100.169 115.581C100.169 114.913 100.072 114.31 99.8778 113.77C99.6884 113.225 99.3996 112.792 99.0114 112.47C98.6231 112.148 98.1402 111.987 97.5625 111.987C96.9706 111.987 96.4782 112.148 96.0852 112.47C95.697 112.792 95.4058 113.225 95.2116 113.77C95.0223 114.31 94.9276 114.913 94.9276 115.581C94.9276 116.244 95.0223 116.845 95.2116 117.385C95.4058 117.925 95.697 118.356 96.0852 118.677C96.4782 118.995 96.9706 119.153 97.5625 119.153ZM111.911 116.412V110.091H114.482V121H111.989V119.061H111.875C111.629 119.672 111.224 120.171 110.661 120.56C110.102 120.948 109.413 121.142 108.594 121.142C107.879 121.142 107.247 120.983 106.698 120.666C106.153 120.344 105.727 119.878 105.419 119.267C105.112 118.651 104.958 117.908 104.958 117.037V110.091H107.529V116.639C107.529 117.33 107.718 117.88 108.097 118.287C108.476 118.694 108.973 118.898 109.588 118.898C109.967 118.898 110.334 118.805 110.689 118.621C111.044 118.436 111.336 118.161 111.563 117.797C111.795 117.427 111.911 116.966 111.911 116.412ZM117.126 121V110.091H119.619V111.909H119.732C119.931 111.279 120.272 110.794 120.755 110.453C121.243 110.107 121.799 109.935 122.424 109.935C122.566 109.935 122.725 109.942 122.9 109.956C123.08 109.965 123.229 109.982 123.347 110.006V112.371C123.238 112.333 123.066 112.3 122.829 112.271C122.597 112.238 122.372 112.222 122.154 112.222C121.685 112.222 121.264 112.323 120.89 112.527C120.521 112.726 120.229 113.003 120.016 113.358C119.803 113.713 119.697 114.123 119.697 114.587V121H117.126ZM132.587 114.608V121H130.016V110.091H132.474V111.945H132.602C132.853 111.334 133.253 110.848 133.802 110.489C134.356 110.129 135.04 109.949 135.854 109.949C136.607 109.949 137.263 110.11 137.822 110.432C138.385 110.754 138.821 111.22 139.129 111.831C139.441 112.442 139.595 113.183 139.59 114.054V121H137.019V114.452C137.019 113.722 136.83 113.152 136.451 112.74C136.077 112.328 135.558 112.122 134.896 112.122C134.446 112.122 134.046 112.222 133.695 112.42C133.35 112.615 133.077 112.896 132.879 113.266C132.684 113.635 132.587 114.082 132.587 114.608ZM147.033 121.213C145.94 121.213 144.995 120.986 144.2 120.531C143.409 120.072 142.8 119.423 142.374 118.585C141.948 117.742 141.735 116.75 141.735 115.609C141.735 114.487 141.948 113.502 142.374 112.655C142.805 111.802 143.406 111.14 144.178 110.666C144.95 110.188 145.857 109.949 146.898 109.949C147.571 109.949 148.205 110.058 148.802 110.276C149.403 110.489 149.933 110.82 150.393 111.27C150.857 111.72 151.221 112.293 151.487 112.989C151.752 113.68 151.884 114.504 151.884 115.46V116.249H142.942V114.516H149.42C149.415 114.023 149.308 113.585 149.1 113.202C148.892 112.813 148.601 112.508 148.227 112.285C147.857 112.063 147.426 111.952 146.934 111.952C146.408 111.952 145.947 112.079 145.549 112.335C145.151 112.586 144.841 112.918 144.619 113.329C144.401 113.737 144.29 114.184 144.285 114.672V116.185C144.285 116.819 144.401 117.364 144.633 117.818C144.865 118.268 145.189 118.614 145.606 118.855C146.022 119.092 146.51 119.21 147.069 119.21C147.443 119.21 147.781 119.158 148.085 119.054C148.388 118.945 148.65 118.786 148.873 118.578C149.095 118.37 149.263 118.112 149.377 117.804L151.778 118.074C151.626 118.708 151.337 119.262 150.911 119.736C150.49 120.204 149.95 120.569 149.292 120.829C148.634 121.085 147.881 121.213 147.033 121.213ZM155.927 110.091L158.129 114.118L160.366 110.091H163.086L159.798 115.545L163.143 121H160.437L158.129 117.072L155.842 121H153.115L156.439 115.545L153.2 110.091H155.927ZM170.522 110.091V112.079H164.251V110.091H170.522ZM165.799 107.477H168.37V117.719C168.37 118.064 168.422 118.329 168.527 118.514C168.636 118.694 168.778 118.817 168.953 118.883C169.128 118.95 169.322 118.983 169.535 118.983C169.696 118.983 169.843 118.971 169.975 118.947C170.113 118.924 170.217 118.902 170.288 118.883L170.721 120.893C170.584 120.941 170.387 120.993 170.132 121.05C169.881 121.106 169.573 121.14 169.208 121.149C168.565 121.168 167.984 121.071 167.468 120.858C166.952 120.64 166.543 120.304 166.24 119.849C165.941 119.395 165.795 118.827 165.799 118.145V107.477ZM177.634 125.091V110.091H180.162V111.895H180.311C180.444 111.63 180.631 111.348 180.872 111.05C181.114 110.747 181.44 110.489 181.852 110.276C182.264 110.058 182.79 109.949 183.429 109.949C184.272 109.949 185.032 110.164 185.709 110.595C186.391 111.021 186.93 111.653 187.328 112.491C187.731 113.325 187.932 114.347 187.932 115.56C187.932 116.758 187.735 117.776 187.342 118.614C186.949 119.452 186.414 120.091 185.737 120.531C185.06 120.972 184.293 121.192 183.436 121.192C182.811 121.192 182.293 121.088 181.881 120.879C181.469 120.671 181.137 120.42 180.886 120.126C180.64 119.828 180.448 119.546 180.311 119.281H180.205V125.091H177.634ZM180.155 115.545C180.155 116.251 180.254 116.869 180.453 117.399C180.657 117.929 180.948 118.344 181.327 118.642C181.71 118.936 182.174 119.082 182.719 119.082C183.287 119.082 183.763 118.931 184.146 118.628C184.53 118.32 184.819 117.901 185.013 117.371C185.212 116.836 185.311 116.227 185.311 115.545C185.311 114.868 185.214 114.267 185.02 113.741C184.826 113.216 184.537 112.804 184.153 112.506C183.77 112.207 183.292 112.058 182.719 112.058C182.17 112.058 181.703 112.203 181.32 112.491C180.936 112.78 180.645 113.185 180.446 113.706C180.252 114.227 180.155 114.84 180.155 115.545ZM197.087 116.412V110.091H199.658V121H197.165V119.061H197.051C196.805 119.672 196.4 120.171 195.837 120.56C195.278 120.948 194.589 121.142 193.77 121.142C193.055 121.142 192.423 120.983 191.874 120.666C191.329 120.344 190.903 119.878 190.595 119.267C190.287 118.651 190.134 117.908 190.134 117.037V110.091H192.705V116.639C192.705 117.33 192.894 117.88 193.273 118.287C193.652 118.694 194.149 118.898 194.764 118.898C195.143 118.898 195.51 118.805 195.865 118.621C196.22 118.436 196.511 118.161 196.739 117.797C196.971 117.427 197.087 116.966 197.087 116.412ZM202.301 121V110.091H204.794V111.909H204.908C205.107 111.279 205.448 110.794 205.931 110.453C206.418 110.107 206.975 109.935 207.6 109.935C207.742 109.935 207.9 109.942 208.076 109.956C208.256 109.965 208.405 109.982 208.523 110.006V112.371C208.414 112.333 208.241 112.3 208.005 112.271C207.773 112.238 207.548 112.222 207.33 112.222C206.861 112.222 206.44 112.323 206.066 112.527C205.696 112.726 205.405 113.003 205.192 113.358C204.979 113.713 204.873 114.123 204.873 114.587V121H202.301ZM214.54 121.213C213.451 121.213 212.516 120.974 211.735 120.496C210.959 120.017 210.36 119.357 209.938 118.514C209.522 117.667 209.313 116.691 209.313 115.588C209.313 114.48 209.526 113.502 209.952 112.655C210.379 111.802 210.98 111.14 211.756 110.666C212.538 110.188 213.461 109.949 214.526 109.949C215.412 109.949 216.195 110.112 216.877 110.439C217.564 110.761 218.111 111.218 218.518 111.81C218.925 112.397 219.157 113.083 219.214 113.869H216.756C216.657 113.344 216.42 112.906 216.046 112.555C215.677 112.2 215.182 112.023 214.562 112.023C214.036 112.023 213.575 112.165 213.177 112.449C212.779 112.728 212.469 113.131 212.246 113.656C212.029 114.182 211.92 114.811 211.92 115.545C211.92 116.289 212.029 116.928 212.246 117.463C212.464 117.993 212.77 118.403 213.163 118.692C213.56 118.976 214.027 119.118 214.562 119.118C214.941 119.118 215.279 119.047 215.577 118.905C215.88 118.758 216.134 118.547 216.337 118.273C216.541 117.998 216.681 117.664 216.756 117.271H219.214C219.152 118.043 218.925 118.727 218.532 119.324C218.139 119.916 217.604 120.38 216.927 120.716C216.25 121.047 215.454 121.213 214.54 121.213ZM223.896 114.608V121H221.325V106.454H223.839V111.945H223.967C224.223 111.329 224.618 110.844 225.153 110.489C225.693 110.129 226.379 109.949 227.213 109.949C227.97 109.949 228.631 110.107 229.194 110.425C229.758 110.742 230.193 111.206 230.501 111.817C230.814 112.427 230.97 113.173 230.97 114.054V121H228.399V114.452C228.399 113.718 228.209 113.147 227.831 112.74C227.457 112.328 226.931 112.122 226.254 112.122C225.799 112.122 225.392 112.222 225.032 112.42C224.677 112.615 224.398 112.896 224.194 113.266C223.995 113.635 223.896 114.082 223.896 114.608ZM236.73 121.22C236.038 121.22 235.416 121.097 234.862 120.851C234.313 120.6 233.877 120.231 233.555 119.743C233.238 119.255 233.079 118.654 233.079 117.939C233.079 117.323 233.193 116.814 233.42 116.412C233.647 116.009 233.958 115.687 234.35 115.446C234.743 115.204 235.186 115.022 235.679 114.899C236.176 114.771 236.69 114.679 237.22 114.622C237.859 114.556 238.377 114.497 238.775 114.445C239.173 114.388 239.462 114.302 239.642 114.189C239.826 114.07 239.919 113.888 239.919 113.642V113.599C239.919 113.064 239.76 112.65 239.443 112.356C239.126 112.063 238.669 111.916 238.072 111.916C237.442 111.916 236.943 112.053 236.574 112.328C236.209 112.603 235.963 112.927 235.835 113.301L233.434 112.96C233.624 112.297 233.936 111.743 234.372 111.298C234.807 110.848 235.34 110.512 235.97 110.29C236.6 110.062 237.296 109.949 238.058 109.949C238.583 109.949 239.107 110.01 239.627 110.133C240.148 110.257 240.624 110.46 241.055 110.744C241.486 111.024 241.832 111.405 242.092 111.888C242.357 112.371 242.49 112.974 242.49 113.699V121H240.018V119.501H239.933C239.777 119.804 239.556 120.088 239.272 120.354C238.993 120.614 238.64 120.825 238.214 120.986C237.793 121.142 237.298 121.22 236.73 121.22ZM237.397 119.331C237.913 119.331 238.361 119.229 238.74 119.026C239.118 118.817 239.41 118.543 239.613 118.202C239.822 117.861 239.926 117.489 239.926 117.087V115.801C239.845 115.867 239.708 115.929 239.514 115.986C239.324 116.043 239.111 116.092 238.875 116.135C238.638 116.177 238.404 116.215 238.172 116.249C237.94 116.282 237.738 116.31 237.568 116.334C237.184 116.386 236.841 116.471 236.538 116.589C236.235 116.708 235.996 116.874 235.821 117.087C235.645 117.295 235.558 117.565 235.558 117.896C235.558 118.37 235.731 118.727 236.076 118.969C236.422 119.21 236.862 119.331 237.397 119.331ZM253.697 112.974L251.353 113.23C251.287 112.993 251.171 112.771 251.005 112.562C250.844 112.354 250.627 112.186 250.352 112.058C250.077 111.93 249.741 111.866 249.343 111.866C248.808 111.866 248.359 111.982 247.994 112.214C247.634 112.446 247.457 112.747 247.461 113.116C247.457 113.434 247.573 113.692 247.809 113.891C248.051 114.089 248.449 114.253 249.002 114.381L250.863 114.778C251.895 115.001 252.663 115.354 253.164 115.837C253.671 116.32 253.927 116.952 253.931 117.733C253.927 118.419 253.725 119.026 253.328 119.551C252.935 120.072 252.388 120.479 251.687 120.773C250.986 121.066 250.181 121.213 249.272 121.213C247.937 121.213 246.862 120.934 246.048 120.375C245.234 119.811 244.748 119.028 244.592 118.024L247.099 117.783C247.213 118.275 247.454 118.647 247.824 118.898C248.193 119.149 248.673 119.274 249.265 119.274C249.876 119.274 250.366 119.149 250.735 118.898C251.109 118.647 251.297 118.337 251.297 117.967C251.297 117.655 251.176 117.397 250.934 117.193C250.698 116.99 250.328 116.833 249.826 116.724L247.966 116.334C246.919 116.116 246.145 115.749 245.643 115.233C245.141 114.712 244.893 114.054 244.897 113.258C244.893 112.586 245.075 112.004 245.444 111.511C245.818 111.014 246.337 110.631 247 110.361C247.667 110.086 248.437 109.949 249.308 109.949C250.586 109.949 251.592 110.221 252.326 110.766C253.065 111.31 253.522 112.046 253.697 112.974ZM260.881 121.213C259.787 121.213 258.843 120.986 258.047 120.531C257.257 120.072 256.648 119.423 256.222 118.585C255.796 117.742 255.583 116.75 255.583 115.609C255.583 114.487 255.796 113.502 256.222 112.655C256.653 111.802 257.254 111.14 258.026 110.666C258.798 110.188 259.704 109.949 260.746 109.949C261.418 109.949 262.053 110.058 262.65 110.276C263.251 110.489 263.781 110.82 264.24 111.27C264.704 111.72 265.069 112.293 265.334 112.989C265.599 113.68 265.732 114.504 265.732 115.46V116.249H256.79V114.516H263.267C263.263 114.023 263.156 113.585 262.948 113.202C262.739 112.813 262.448 112.508 262.074 112.285C261.705 112.063 261.274 111.952 260.782 111.952C260.256 111.952 259.794 112.079 259.397 112.335C258.999 112.586 258.689 112.918 258.466 113.329C258.248 113.737 258.137 114.184 258.132 114.672V116.185C258.132 116.819 258.248 117.364 258.48 117.818C258.712 118.268 259.037 118.614 259.453 118.855C259.87 119.092 260.358 119.21 260.917 119.21C261.291 119.21 261.629 119.158 261.932 119.054C262.235 118.945 262.498 118.786 262.721 118.578C262.943 118.37 263.111 118.112 263.225 117.804L265.625 118.074C265.474 118.708 265.185 119.262 264.759 119.736C264.337 120.204 263.798 120.569 263.14 120.829C262.481 121.085 261.729 121.213 260.881 121.213Z" fill="#030712" fill-opacity="0.8"/>
<path d="M58.5043 152.928V147.182H60.4219V157H58.5426V155.3H58.4403C58.2145 155.824 57.8523 156.261 57.3537 156.61C56.8594 156.955 56.2436 157.128 55.5064 157.128C54.8757 157.128 54.3175 156.989 53.8317 156.712C53.3501 156.431 52.9709 156.016 52.6939 155.466C52.4212 154.916 52.2848 154.236 52.2848 153.427V147.182H54.196V153.197C54.196 153.866 54.3814 154.398 54.7521 154.795C55.1229 155.191 55.6044 155.389 56.1967 155.389C56.5547 155.389 56.9105 155.3 57.2642 155.121C57.6222 154.942 57.9183 154.671 58.1527 154.309C58.3913 153.947 58.5085 153.486 58.5043 152.928ZM70.3471 149.579L68.6149 149.886C68.5424 149.664 68.4274 149.453 68.2697 149.253C68.1163 149.052 67.9075 148.888 67.6433 148.761C67.3791 148.633 67.0488 148.569 66.6525 148.569C66.1113 148.569 65.6596 148.69 65.2974 148.933C64.9352 149.172 64.7541 149.481 64.7541 149.86C64.7541 150.188 64.8755 150.452 65.1184 150.653C65.3613 150.853 65.7534 151.017 66.2946 151.145L67.8542 151.503C68.7576 151.712 69.4309 152.033 69.8741 152.468C70.3173 152.903 70.5389 153.467 70.5389 154.162C70.5389 154.75 70.3684 155.274 70.0275 155.734C69.6909 156.19 69.22 156.548 68.6149 156.808C68.014 157.068 67.3173 157.198 66.5247 157.198C65.4252 157.198 64.5282 156.964 63.8336 156.495C63.139 156.022 62.7129 155.351 62.5552 154.481L64.4025 154.2C64.5176 154.682 64.7541 155.046 65.112 155.293C65.47 155.536 65.9366 155.658 66.5119 155.658C67.1383 155.658 67.639 155.528 68.014 155.268C68.389 155.003 68.5765 154.682 68.5765 154.302C68.5765 153.996 68.4615 153.738 68.2314 153.529C68.0055 153.32 67.6582 153.163 67.1895 153.056L65.5275 152.692C64.6113 152.483 63.9338 152.151 63.4949 151.695C63.0602 151.239 62.8429 150.661 62.8429 149.962C62.8429 149.383 63.0048 148.876 63.3287 148.441C63.6525 148.006 64.1 147.668 64.671 147.425C65.242 147.177 65.8961 147.054 66.6333 147.054C67.6944 147.054 68.5297 147.284 69.139 147.744C69.7484 148.2 70.1511 148.812 70.3471 149.579ZM76.8718 157.198C75.9045 157.198 75.0714 156.991 74.3725 156.578C73.6779 156.16 73.141 155.575 72.7617 154.82C72.3867 154.062 72.1992 153.173 72.1992 152.155C72.1992 151.149 72.3867 150.263 72.7617 149.496C73.141 148.729 73.6694 148.13 74.3469 147.7C75.0288 147.269 75.8256 147.054 76.7376 147.054C77.2915 147.054 77.8285 147.146 78.3484 147.329C78.8683 147.512 79.3349 147.8 79.7482 148.192C80.1616 148.584 80.4876 149.093 80.7262 149.719C80.9648 150.342 81.0842 151.098 81.0842 151.989V152.666H73.2795V151.234H79.2113C79.2113 150.731 79.109 150.286 78.9045 149.898C78.6999 149.506 78.4123 149.197 78.0415 148.972C77.6751 148.746 77.2447 148.633 76.7504 148.633C76.2134 148.633 75.7447 148.765 75.3441 149.029C74.9478 149.289 74.641 149.63 74.4237 150.052C74.2106 150.469 74.104 150.923 74.104 151.413V152.532C74.104 153.188 74.2191 153.746 74.4492 154.207C74.6836 154.667 75.0096 155.018 75.4272 155.261C75.8448 155.5 76.3327 155.619 76.891 155.619C77.2532 155.619 77.5835 155.568 77.8817 155.466C78.18 155.359 78.4379 155.202 78.6552 154.993C78.8725 154.784 79.0387 154.526 79.1538 154.219L80.9627 154.545C80.8178 155.078 80.5579 155.545 80.1829 155.945C79.8121 156.342 79.3455 156.651 78.783 156.872C78.2248 157.089 77.5877 157.198 76.8718 157.198ZM88.1218 157V143.909H90.033V148.773H90.1481C90.2589 148.569 90.4187 148.332 90.6275 148.064C90.8363 147.795 91.1261 147.561 91.4968 147.361C91.8675 147.156 92.3576 147.054 92.967 147.054C93.7596 147.054 94.467 147.254 95.0891 147.655C95.7113 148.055 96.1992 148.633 96.5529 149.387C96.9109 150.141 97.0898 151.049 97.0898 152.11C97.0898 153.171 96.913 154.081 96.5593 154.839C96.2056 155.594 95.7198 156.175 95.1019 156.584C94.484 156.989 93.7788 157.192 92.9862 157.192C92.3896 157.192 91.9016 157.092 91.5224 156.891C91.1474 156.691 90.8533 156.457 90.6403 156.188C90.4272 155.92 90.2631 155.681 90.1481 155.472H89.9883V157H88.1218ZM89.9947 152.091C89.9947 152.781 90.0948 153.386 90.2951 153.906C90.4954 154.426 90.7852 154.833 91.1644 155.127C91.5437 155.417 92.0082 155.562 92.5579 155.562C93.1289 155.562 93.6062 155.41 93.9897 155.108C94.3732 154.801 94.663 154.386 94.859 153.861C95.0593 153.337 95.1594 152.747 95.1594 152.091C95.1594 151.443 95.0614 150.861 94.8654 150.346C94.6737 149.83 94.3839 149.423 93.9961 149.125C93.6126 148.827 93.1332 148.677 92.5579 148.677C92.0039 148.677 91.5352 148.82 91.1516 149.106C90.7724 149.391 90.4847 149.79 90.2887 150.301C90.0927 150.812 89.9947 151.409 89.9947 152.091ZM100.11 160.682C99.8246 160.682 99.5646 160.658 99.3303 160.611C99.0959 160.569 98.9212 160.522 98.8061 160.471L99.2663 158.905C99.6158 158.999 99.9268 159.039 100.2 159.026C100.472 159.013 100.713 158.911 100.922 158.719C101.135 158.528 101.322 158.214 101.484 157.78L101.721 157.128L98.1286 147.182H100.174L102.661 154.801H102.763L105.249 147.182H107.301L103.255 158.31C103.067 158.822 102.829 159.254 102.539 159.608C102.249 159.966 101.904 160.234 101.504 160.413C101.103 160.592 100.638 160.682 100.11 160.682ZM119.102 143.909H121.071V153.19C121.071 154.03 120.905 154.748 120.573 155.344C120.244 155.941 119.782 156.397 119.186 156.712C118.589 157.023 117.89 157.179 117.089 157.179C116.352 157.179 115.689 157.045 115.101 156.776C114.517 156.508 114.055 156.118 113.714 155.606C113.377 155.091 113.209 154.464 113.209 153.727H115.171C115.171 154.089 115.254 154.403 115.421 154.667C115.591 154.931 115.823 155.138 116.117 155.287C116.416 155.432 116.757 155.504 117.14 155.504C117.558 155.504 117.911 155.417 118.201 155.242C118.495 155.063 118.719 154.801 118.872 154.456C119.026 154.111 119.102 153.689 119.102 153.19V143.909ZM126.65 157.217C126.028 157.217 125.465 157.102 124.962 156.872C124.46 156.638 124.061 156.299 123.767 155.856C123.477 155.413 123.332 154.869 123.332 154.226C123.332 153.672 123.439 153.216 123.652 152.858C123.865 152.5 124.153 152.217 124.515 152.008C124.877 151.799 125.282 151.641 125.729 151.535C126.177 151.428 126.633 151.347 127.097 151.292C127.685 151.224 128.163 151.168 128.529 151.126C128.896 151.079 129.162 151.004 129.328 150.902C129.494 150.8 129.577 150.633 129.577 150.403V150.359C129.577 149.8 129.42 149.368 129.104 149.061C128.793 148.754 128.329 148.601 127.711 148.601C127.067 148.601 126.56 148.744 126.19 149.029C125.823 149.31 125.57 149.624 125.429 149.969L123.633 149.56C123.846 148.963 124.157 148.481 124.566 148.115C124.979 147.744 125.455 147.476 125.991 147.31C126.528 147.139 127.093 147.054 127.685 147.054C128.077 147.054 128.493 147.101 128.932 147.195C129.375 147.284 129.788 147.45 130.172 147.693C130.56 147.936 130.877 148.283 131.124 148.735C131.371 149.182 131.495 149.764 131.495 150.48V157H129.629V155.658H129.552C129.428 155.905 129.243 156.148 128.996 156.386C128.749 156.625 128.431 156.823 128.043 156.981C127.656 157.138 127.191 157.217 126.65 157.217ZM127.065 155.683C127.594 155.683 128.045 155.579 128.42 155.37C128.8 155.161 129.087 154.888 129.283 154.552C129.484 154.211 129.584 153.847 129.584 153.459V152.193C129.516 152.261 129.384 152.325 129.188 152.385C128.996 152.44 128.776 152.489 128.529 152.532C128.282 152.57 128.041 152.606 127.807 152.641C127.572 152.67 127.376 152.696 127.219 152.717C126.848 152.764 126.509 152.843 126.202 152.954C125.9 153.065 125.657 153.224 125.474 153.433C125.295 153.638 125.205 153.91 125.205 154.251C125.205 154.724 125.38 155.082 125.729 155.325C126.079 155.564 126.524 155.683 127.065 155.683ZM135.952 151.17V157H134.041V147.182H135.875V148.78H135.997C136.222 148.26 136.576 147.842 137.058 147.527C137.544 147.212 138.155 147.054 138.892 147.054C139.561 147.054 140.147 147.195 140.65 147.476C141.153 147.753 141.543 148.166 141.82 148.716C142.097 149.266 142.235 149.945 142.235 150.755V157H140.324V150.985C140.324 150.273 140.139 149.717 139.768 149.317C139.397 148.912 138.888 148.709 138.24 148.709C137.797 148.709 137.403 148.805 137.058 148.997C136.717 149.189 136.446 149.47 136.246 149.841C136.05 150.207 135.952 150.651 135.952 151.17ZM151.018 152.928V147.182H152.936V157H151.056V155.3H150.954C150.728 155.824 150.366 156.261 149.867 156.61C149.373 156.955 148.757 157.128 148.02 157.128C147.389 157.128 146.831 156.989 146.345 156.712C145.864 156.431 145.485 156.016 145.208 155.466C144.935 154.916 144.798 154.236 144.798 153.427V147.182H146.71V153.197C146.71 153.866 146.895 154.398 147.266 154.795C147.637 155.191 148.118 155.389 148.71 155.389C149.068 155.389 149.424 155.3 149.778 155.121C150.136 154.942 150.432 154.671 150.666 154.309C150.905 153.947 151.022 153.486 151.018 152.928ZM158.361 157.217C157.739 157.217 157.176 157.102 156.673 156.872C156.17 156.638 155.772 156.299 155.478 155.856C155.188 155.413 155.043 154.869 155.043 154.226C155.043 153.672 155.15 153.216 155.363 152.858C155.576 152.5 155.864 152.217 156.226 152.008C156.588 151.799 156.993 151.641 157.44 151.535C157.888 151.428 158.344 151.347 158.808 151.292C159.396 151.224 159.874 151.168 160.24 151.126C160.607 151.079 160.873 151.004 161.039 150.902C161.205 150.8 161.288 150.633 161.288 150.403V150.359C161.288 149.8 161.131 149.368 160.815 149.061C160.504 148.754 160.04 148.601 159.422 148.601C158.778 148.601 158.271 148.744 157.901 149.029C157.534 149.31 157.281 149.624 157.14 149.969L155.344 149.56C155.557 148.963 155.868 148.481 156.277 148.115C156.69 147.744 157.165 147.476 157.702 147.31C158.239 147.139 158.804 147.054 159.396 147.054C159.788 147.054 160.204 147.101 160.643 147.195C161.086 147.284 161.499 147.45 161.883 147.693C162.271 147.936 162.588 148.283 162.835 148.735C163.082 149.182 163.206 149.764 163.206 150.48V157H161.339V155.658H161.263C161.139 155.905 160.954 156.148 160.707 156.386C160.46 156.625 160.142 156.823 159.754 156.981C159.366 157.138 158.902 157.217 158.361 157.217ZM158.776 155.683C159.305 155.683 159.756 155.579 160.131 155.37C160.511 155.161 160.798 154.888 160.994 154.552C161.195 154.211 161.295 153.847 161.295 153.459V152.193C161.227 152.261 161.094 152.325 160.898 152.385C160.707 152.44 160.487 152.489 160.24 152.532C159.993 152.57 159.752 152.606 159.518 152.641C159.283 152.67 159.087 152.696 158.93 152.717C158.559 152.764 158.22 152.843 157.913 152.954C157.611 153.065 157.368 153.224 157.185 153.433C157.006 153.638 156.916 153.91 156.916 154.251C156.916 154.724 157.091 155.082 157.44 155.325C157.79 155.564 158.235 155.683 158.776 155.683ZM165.752 157V147.182H167.599V148.741H167.701C167.88 148.213 168.195 147.798 168.647 147.495C169.103 147.188 169.619 147.035 170.194 147.035C170.313 147.035 170.454 147.039 170.616 147.048C170.782 147.056 170.912 147.067 171.006 147.079V148.908C170.929 148.886 170.793 148.863 170.597 148.837C170.401 148.807 170.205 148.793 170.009 148.793C169.557 148.793 169.154 148.888 168.801 149.08C168.451 149.268 168.174 149.53 167.97 149.866C167.765 150.199 167.663 150.578 167.663 151.004V157H165.752ZM174.167 160.682C173.881 160.682 173.621 160.658 173.387 160.611C173.153 160.569 172.978 160.522 172.863 160.471L173.323 158.905C173.672 158.999 173.983 159.039 174.256 159.026C174.529 159.013 174.77 158.911 174.979 158.719C175.192 158.528 175.379 158.214 175.541 157.78L175.778 157.128L172.185 147.182H174.231L176.717 154.801H176.819L179.306 147.182H181.358L177.312 158.31C177.124 158.822 176.885 159.254 176.596 159.608C176.306 159.966 175.961 160.234 175.56 160.413C175.16 160.592 174.695 160.682 174.167 160.682ZM187.892 157V155.568L192.322 150.979C192.795 150.48 193.185 150.043 193.491 149.668C193.803 149.289 194.035 148.929 194.188 148.588C194.342 148.247 194.418 147.885 194.418 147.501C194.418 147.067 194.316 146.692 194.112 146.376C193.907 146.057 193.628 145.812 193.274 145.641C192.92 145.467 192.522 145.379 192.079 145.379C191.61 145.379 191.201 145.475 190.852 145.667C190.502 145.859 190.234 146.129 190.046 146.479C189.859 146.828 189.765 147.237 189.765 147.706H187.879C187.879 146.909 188.063 146.212 188.429 145.616C188.795 145.019 189.298 144.557 189.938 144.229C190.577 143.896 191.303 143.73 192.117 143.73C192.94 143.73 193.664 143.894 194.29 144.222C194.921 144.546 195.413 144.989 195.767 145.552C196.121 146.11 196.298 146.741 196.298 147.444C196.298 147.93 196.206 148.405 196.023 148.869C195.844 149.334 195.531 149.852 195.083 150.423C194.636 150.989 194.013 151.677 193.217 152.487L190.615 155.21V155.306H196.509V157H187.892ZM203.489 157.217C202.479 157.213 201.616 156.947 200.9 156.418C200.184 155.89 199.636 155.121 199.257 154.111C198.878 153.101 198.688 151.884 198.688 150.461C198.688 149.042 198.878 147.829 199.257 146.824C199.641 145.818 200.19 145.051 200.906 144.523C201.626 143.994 202.487 143.73 203.489 143.73C204.49 143.73 205.349 143.996 206.065 144.529C206.781 145.057 207.328 145.825 207.707 146.83C208.091 147.832 208.283 149.042 208.283 150.461C208.283 151.888 208.093 153.107 207.714 154.117C207.335 155.123 206.787 155.892 206.071 156.425C205.355 156.953 204.494 157.217 203.489 157.217ZM203.489 155.511C204.375 155.511 205.067 155.078 205.566 154.213C206.069 153.348 206.32 152.097 206.32 150.461C206.32 149.374 206.205 148.456 205.975 147.706C205.749 146.952 205.423 146.381 204.997 145.993C204.575 145.601 204.072 145.405 203.489 145.405C202.607 145.405 201.914 145.839 201.411 146.709C200.908 147.578 200.655 148.829 200.651 150.461C200.651 151.552 200.763 152.474 200.989 153.229C201.219 153.979 201.545 154.548 201.967 154.935C202.389 155.319 202.896 155.511 203.489 155.511ZM210.55 157V155.568L214.98 150.979C215.453 150.48 215.843 150.043 216.15 149.668C216.461 149.289 216.693 148.929 216.846 148.588C217 148.247 217.077 147.885 217.077 147.501C217.077 147.067 216.974 146.692 216.77 146.376C216.565 146.057 216.286 145.812 215.932 145.641C215.579 145.467 215.18 145.379 214.737 145.379C214.268 145.379 213.859 145.475 213.51 145.667C213.16 145.859 212.892 146.129 212.704 146.479C212.517 146.828 212.423 147.237 212.423 147.706H210.537C210.537 146.909 210.721 146.212 211.087 145.616C211.454 145.019 211.956 144.557 212.596 144.229C213.235 143.896 213.961 143.73 214.775 143.73C215.598 143.73 216.322 143.894 216.949 144.222C217.579 144.546 218.072 144.989 218.425 145.552C218.779 146.11 218.956 146.741 218.956 147.444C218.956 147.93 218.864 148.405 218.681 148.869C218.502 149.334 218.189 149.852 217.741 150.423C217.294 150.989 216.672 151.677 215.875 152.487L213.273 155.21V155.306H219.167V157H210.55ZM221.033 154.443V152.845L226.69 143.909H227.949V146.261H227.15L223.104 152.666V152.768H230.858V154.443H221.033ZM227.24 157V153.957L227.253 153.229V143.909H229.126V157H227.24Z" fill="#030712" fill-opacity="0.5"/>
<path d="M408.19 91.4079V106H403.774V83.2799H407.294L419.038 98.2559V83.3119H423.454V106H419.774L408.19 91.4079ZM443.957 102.128V106H428.181V83.2799H443.669V87.1519H432.597V92.6239H442.165V96.2079H432.597V102.128H443.957ZM455.175 83.3439H459.271L461.863 90.8639L464.487 83.3439H468.551L464.647 93.6799L467.527 100.912L473.959 83.2799H478.759L469.671 106H465.863L461.863 96.4639L457.895 106H454.087L445.031 83.2799H449.767L456.231 100.912L459.047 93.6799L455.175 83.3439ZM493.103 102.128V106H480.111V102.128H484.655V92.4319C484.463 92.6879 484.164 92.9546 483.759 93.2319C483.353 93.4879 482.895 93.7333 482.383 93.9679C481.871 94.2026 481.359 94.3946 480.847 94.5439C480.335 94.6933 479.876 94.7679 479.471 94.7679V90.7679C479.855 90.7679 480.313 90.6506 480.847 90.4159C481.401 90.1599 481.945 89.8613 482.479 89.5199C483.033 89.1786 483.503 88.8479 483.887 88.5279C484.292 88.1866 484.548 87.9199 484.655 87.7279H489.039V102.128H493.103ZM502.259 110.768C500.616 110.768 499.134 110.416 497.811 109.712C496.488 109.008 495.486 108.048 494.803 106.832L497.267 104.272C497.864 105.104 498.611 105.765 499.507 106.256C500.403 106.747 501.331 106.992 502.291 106.992C503.059 106.992 503.731 106.832 504.307 106.512C504.904 106.192 505.374 105.744 505.715 105.168C506.056 104.592 506.227 103.931 506.227 103.184C506.227 102.437 506.067 101.787 505.747 101.232C505.427 100.677 504.99 100.251 504.435 99.9519C503.88 99.6319 503.251 99.4719 502.547 99.4719C501.843 99.4719 501.182 99.6319 500.563 99.9519C499.966 100.251 499.486 100.688 499.123 101.264H495.379L498.003 87.7279H509.203V91.6319H501.107L500.179 96.7199C500.456 96.4639 500.84 96.2506 501.331 96.0799C501.822 95.8879 502.43 95.7919 503.155 95.7919C504.584 95.7919 505.864 96.1013 506.995 96.7199C508.126 97.3386 509.011 98.2026 509.651 99.3119C510.291 100.4 510.611 101.659 510.611 103.088C510.611 104.603 510.248 105.936 509.523 107.088C508.798 108.261 507.806 109.168 506.547 109.808C505.288 110.448 503.859 110.768 502.259 110.768Z" fill="#030712"/>
<path d="M392.827 134.8C392.827 133.933 392.974 133.087 393.267 132.26C393.574 131.42 394.014 130.66 394.587 129.98C395.174 129.287 395.887 128.74 396.727 128.34C397.567 127.927 398.52 127.72 399.587 127.72C400.854 127.72 401.94 128.013 402.847 128.6C403.754 129.173 404.427 129.913 404.867 130.82L403.447 131.74C403.167 131.14 402.807 130.667 402.367 130.32C401.94 129.96 401.474 129.707 400.967 129.56C400.474 129.413 399.987 129.34 399.507 129.34C398.72 129.34 398.02 129.5 397.407 129.82C396.807 130.14 396.3 130.567 395.887 131.1C395.474 131.633 395.16 132.233 394.947 132.9C394.747 133.553 394.647 134.213 394.647 134.88C394.647 135.613 394.767 136.32 395.007 137C395.26 137.68 395.607 138.28 396.047 138.8C396.487 139.32 397.007 139.733 397.607 140.04C398.207 140.347 398.86 140.5 399.567 140.5C400.06 140.5 400.567 140.413 401.087 140.24C401.607 140.067 402.094 139.8 402.547 139.44C403 139.067 403.36 138.587 403.627 138L405.127 138.82C404.834 139.527 404.38 140.127 403.767 140.62C403.154 141.113 402.467 141.487 401.707 141.74C400.96 141.993 400.22 142.12 399.487 142.12C398.514 142.12 397.62 141.913 396.807 141.5C395.994 141.073 395.287 140.513 394.687 139.82C394.1 139.113 393.64 138.327 393.307 137.46C392.987 136.58 392.827 135.693 392.827 134.8ZM411.66 142.2C410.873 142.2 410.16 142.06 409.52 141.78C408.88 141.487 408.326 141.093 407.86 140.6C407.393 140.093 407.033 139.513 406.78 138.86C406.526 138.207 406.4 137.52 406.4 136.8C406.4 136.067 406.526 135.373 406.78 134.72C407.033 134.067 407.393 133.493 407.86 133C408.326 132.493 408.88 132.1 409.52 131.82C410.173 131.527 410.886 131.38 411.66 131.38C412.446 131.38 413.16 131.527 413.8 131.82C414.44 132.1 414.993 132.493 415.46 133C415.94 133.493 416.306 134.067 416.56 134.72C416.813 135.373 416.94 136.067 416.94 136.8C416.94 137.52 416.813 138.207 416.56 138.86C416.306 139.513 415.946 140.093 415.48 140.6C415.013 141.093 414.453 141.487 413.8 141.78C413.16 142.06 412.446 142.2 411.66 142.2ZM408.2 136.82C408.2 137.54 408.353 138.193 408.66 138.78C408.98 139.367 409.4 139.833 409.92 140.18C410.44 140.513 411.02 140.68 411.66 140.68C412.3 140.68 412.88 140.507 413.4 140.16C413.933 139.813 414.353 139.347 414.66 138.76C414.98 138.16 415.14 137.5 415.14 136.78C415.14 136.06 414.98 135.407 414.66 134.82C414.353 134.233 413.933 133.767 413.4 133.42C412.88 133.073 412.3 132.9 411.66 132.9C411.02 132.9 410.44 133.08 409.92 133.44C409.4 133.787 408.98 134.253 408.66 134.84C408.353 135.427 408.2 136.087 408.2 136.82ZM418.972 137.82V131.56H420.732V137.48C420.732 138.547 420.919 139.347 421.292 139.88C421.666 140.413 422.219 140.68 422.952 140.68C423.432 140.68 423.892 140.58 424.332 140.38C424.786 140.167 425.192 139.867 425.552 139.48C425.912 139.093 426.192 138.633 426.392 138.1V131.56H428.152V140C428.152 140.213 428.192 140.373 428.272 140.48C428.366 140.573 428.512 140.627 428.712 140.64V142C428.512 142.027 428.352 142.04 428.232 142.04C428.126 142.053 428.019 142.06 427.912 142.06C427.579 142.06 427.292 141.96 427.052 141.76C426.812 141.547 426.686 141.287 426.672 140.98L426.632 139.76C426.179 140.533 425.566 141.133 424.792 141.56C424.032 141.987 423.199 142.2 422.292 142.2C421.199 142.2 420.372 141.833 419.812 141.1C419.252 140.353 418.972 139.26 418.972 137.82ZM436.704 142.2C435.851 142.2 435.091 141.987 434.424 141.56C433.757 141.133 433.231 140.593 432.844 139.94V146.26H431.084V131.56H432.644V133.52C433.057 132.88 433.597 132.367 434.264 131.98C434.931 131.58 435.657 131.38 436.444 131.38C437.164 131.38 437.824 131.527 438.424 131.82C439.024 132.113 439.544 132.513 439.984 133.02C440.424 133.527 440.764 134.107 441.004 134.76C441.257 135.4 441.384 136.073 441.384 136.78C441.384 137.767 441.184 138.673 440.784 139.5C440.397 140.327 439.851 140.987 439.144 141.48C438.437 141.96 437.624 142.2 436.704 142.2ZM436.164 140.68C436.684 140.68 437.151 140.573 437.564 140.36C437.991 140.133 438.351 139.84 438.644 139.48C438.951 139.107 439.184 138.687 439.344 138.22C439.504 137.753 439.584 137.273 439.584 136.78C439.584 136.26 439.491 135.767 439.304 135.3C439.131 134.833 438.877 134.42 438.544 134.06C438.224 133.7 437.844 133.42 437.404 133.22C436.977 133.007 436.511 132.9 436.004 132.9C435.684 132.9 435.351 132.96 435.004 133.08C434.671 133.2 434.351 133.373 434.044 133.6C433.737 133.813 433.477 134.06 433.264 134.34C433.051 134.62 432.911 134.92 432.844 135.24V138.22C433.044 138.673 433.311 139.087 433.644 139.46C433.977 139.833 434.364 140.133 434.804 140.36C435.244 140.573 435.697 140.68 436.164 140.68ZM448.105 142.2C447.318 142.2 446.605 142.06 445.965 141.78C445.325 141.487 444.772 141.093 444.305 140.6C443.838 140.093 443.478 139.513 443.225 138.86C442.972 138.207 442.845 137.52 442.845 136.8C442.845 136.067 442.972 135.373 443.225 134.72C443.478 134.067 443.838 133.493 444.305 133C444.772 132.493 445.325 132.1 445.965 131.82C446.618 131.527 447.332 131.38 448.105 131.38C448.892 131.38 449.605 131.527 450.245 131.82C450.885 132.1 451.438 132.493 451.905 133C452.385 133.493 452.752 134.067 453.005 134.72C453.258 135.373 453.385 136.067 453.385 136.8C453.385 137.52 453.258 138.207 453.005 138.86C452.752 139.513 452.392 140.093 451.925 140.6C451.458 141.093 450.898 141.487 450.245 141.78C449.605 142.06 448.892 142.2 448.105 142.2ZM444.645 136.82C444.645 137.54 444.798 138.193 445.105 138.78C445.425 139.367 445.845 139.833 446.365 140.18C446.885 140.513 447.465 140.68 448.105 140.68C448.745 140.68 449.325 140.507 449.845 140.16C450.378 139.813 450.798 139.347 451.105 138.76C451.425 138.16 451.585 137.5 451.585 136.78C451.585 136.06 451.425 135.407 451.105 134.82C450.798 134.233 450.378 133.767 449.845 133.42C449.325 133.073 448.745 132.9 448.105 132.9C447.465 132.9 446.885 133.08 446.365 133.44C445.845 133.787 445.425 134.253 445.105 134.84C444.798 135.427 444.645 136.087 444.645 136.82ZM464.578 142H462.818V136.16C462.818 135.053 462.644 134.247 462.298 133.74C461.964 133.22 461.451 132.96 460.758 132.96C460.278 132.96 459.798 133.08 459.318 133.32C458.851 133.56 458.431 133.887 458.058 134.3C457.698 134.7 457.438 135.167 457.278 135.7V142H455.518V131.56H457.118V133.8C457.398 133.307 457.758 132.88 458.198 132.52C458.638 132.16 459.138 131.88 459.698 131.68C460.258 131.48 460.844 131.38 461.458 131.38C462.058 131.38 462.558 131.493 462.958 131.72C463.371 131.933 463.691 132.24 463.918 132.64C464.158 133.027 464.324 133.487 464.418 134.02C464.524 134.553 464.578 135.133 464.578 135.76V142ZM471.733 134.8C471.733 133.933 471.88 133.087 472.173 132.26C472.48 131.42 472.92 130.66 473.493 129.98C474.08 129.287 474.793 128.74 475.633 128.34C476.473 127.927 477.426 127.72 478.493 127.72C479.76 127.72 480.846 128.013 481.753 128.6C482.66 129.173 483.333 129.913 483.773 130.82L482.353 131.74C482.073 131.14 481.713 130.667 481.273 130.32C480.846 129.96 480.38 129.707 479.873 129.56C479.38 129.413 478.893 129.34 478.413 129.34C477.626 129.34 476.926 129.5 476.313 129.82C475.713 130.14 475.206 130.567 474.793 131.1C474.38 131.633 474.066 132.233 473.853 132.9C473.653 133.553 473.553 134.213 473.553 134.88C473.553 135.613 473.673 136.32 473.913 137C474.166 137.68 474.513 138.28 474.953 138.8C475.393 139.32 475.913 139.733 476.513 140.04C477.113 140.347 477.766 140.5 478.473 140.5C478.966 140.5 479.473 140.413 479.993 140.24C480.513 140.067 481 139.8 481.453 139.44C481.906 139.067 482.266 138.587 482.533 138L484.033 138.82C483.74 139.527 483.286 140.127 482.673 140.62C482.06 141.113 481.373 141.487 480.613 141.74C479.866 141.993 479.126 142.12 478.393 142.12C477.42 142.12 476.526 141.913 475.713 141.5C474.9 141.073 474.193 140.513 473.593 139.82C473.006 139.113 472.546 138.327 472.213 137.46C471.893 136.58 471.733 135.693 471.733 134.8ZM490.566 142.2C489.779 142.2 489.066 142.06 488.426 141.78C487.786 141.487 487.233 141.093 486.766 140.6C486.299 140.093 485.939 139.513 485.686 138.86C485.433 138.207 485.306 137.52 485.306 136.8C485.306 136.067 485.433 135.373 485.686 134.72C485.939 134.067 486.299 133.493 486.766 133C487.233 132.493 487.786 132.1 488.426 131.82C489.079 131.527 489.793 131.38 490.566 131.38C491.353 131.38 492.066 131.527 492.706 131.82C493.346 132.1 493.899 132.493 494.366 133C494.846 133.493 495.213 134.067 495.466 134.72C495.719 135.373 495.846 136.067 495.846 136.8C495.846 137.52 495.719 138.207 495.466 138.86C495.213 139.513 494.853 140.093 494.386 140.6C493.919 141.093 493.359 141.487 492.706 141.78C492.066 142.06 491.353 142.2 490.566 142.2ZM487.106 136.82C487.106 137.54 487.259 138.193 487.566 138.78C487.886 139.367 488.306 139.833 488.826 140.18C489.346 140.513 489.926 140.68 490.566 140.68C491.206 140.68 491.786 140.507 492.306 140.16C492.839 139.813 493.259 139.347 493.566 138.76C493.886 138.16 494.046 137.5 494.046 136.78C494.046 136.06 493.886 135.407 493.566 134.82C493.259 134.233 492.839 133.767 492.306 133.42C491.786 133.073 491.206 132.9 490.566 132.9C489.926 132.9 489.346 133.08 488.826 133.44C488.306 133.787 487.886 134.253 487.566 134.84C487.259 135.427 487.106 136.087 487.106 136.82ZM497.299 136.8C497.299 135.813 497.499 134.913 497.899 134.1C498.312 133.273 498.872 132.613 499.579 132.12C500.299 131.627 501.119 131.38 502.039 131.38C502.879 131.38 503.632 131.6 504.299 132.04C504.965 132.48 505.485 133.013 505.859 133.64V127.4H507.619V140C507.619 140.213 507.659 140.373 507.739 140.48C507.832 140.573 507.979 140.627 508.179 140.64V142C507.845 142.053 507.585 142.08 507.399 142.08C507.052 142.08 506.745 141.96 506.479 141.72C506.225 141.48 506.099 141.213 506.099 140.92V140.04C505.685 140.707 505.132 141.233 504.439 141.62C503.745 142.007 503.025 142.2 502.279 142.2C501.559 142.2 500.892 142.06 500.279 141.78C499.679 141.487 499.152 141.087 498.699 140.58C498.259 140.073 497.912 139.5 497.659 138.86C497.419 138.207 497.299 137.52 497.299 136.8ZM505.859 138.34V135.34C505.699 134.887 505.439 134.48 505.079 134.12C504.719 133.747 504.312 133.453 503.859 133.24C503.419 133.013 502.979 132.9 502.539 132.9C502.019 132.9 501.545 133.013 501.119 133.24C500.705 133.453 500.345 133.747 500.039 134.12C499.745 134.48 499.519 134.893 499.359 135.36C499.199 135.827 499.119 136.313 499.119 136.82C499.119 137.34 499.205 137.833 499.379 138.3C499.565 138.767 499.819 139.18 500.139 139.54C500.472 139.9 500.852 140.18 501.279 140.38C501.719 140.58 502.192 140.68 502.699 140.68C503.019 140.68 503.345 140.62 503.679 140.5C504.025 140.38 504.352 140.213 504.659 140C504.965 139.787 505.225 139.54 505.439 139.26C505.652 138.967 505.792 138.66 505.859 138.34ZM515.177 142.2C514.39 142.2 513.67 142.06 513.017 141.78C512.377 141.487 511.817 141.093 511.337 140.6C510.87 140.093 510.503 139.513 510.237 138.86C509.983 138.207 509.857 137.513 509.857 136.78C509.857 135.793 510.083 134.893 510.537 134.08C510.99 133.267 511.617 132.613 512.417 132.12C513.23 131.627 514.157 131.38 515.197 131.38C516.25 131.38 517.163 131.633 517.937 132.14C518.723 132.633 519.33 133.287 519.757 134.1C520.197 134.9 520.417 135.767 520.417 136.7C520.417 136.833 520.41 136.967 520.397 137.1C520.397 137.22 520.39 137.313 520.377 137.38H511.717C511.77 138.06 511.957 138.667 512.277 139.2C512.61 139.72 513.037 140.133 513.557 140.44C514.077 140.733 514.637 140.88 515.237 140.88C515.877 140.88 516.477 140.72 517.037 140.4C517.61 140.08 518.003 139.66 518.217 139.14L519.737 139.56C519.51 140.067 519.17 140.52 518.717 140.92C518.277 141.32 517.75 141.633 517.137 141.86C516.537 142.087 515.883 142.2 515.177 142.2ZM511.657 136.16H518.777C518.723 135.48 518.53 134.88 518.197 134.36C517.863 133.84 517.437 133.433 516.917 133.14C516.397 132.847 515.823 132.7 515.197 132.7C514.583 132.7 514.017 132.847 513.497 133.14C512.977 133.433 512.55 133.84 512.217 134.36C511.897 134.88 511.71 135.48 511.657 136.16Z" fill="#030712" fill-opacity="0.4"/>
</svg>
