<svg width="1440" height="1919" viewBox="0 0 1440 1919" fill="none" xmlns="http://www.w3.org/2000/svg">
<mask id="path-1-inside-1_6_58" fill="white">
<path d="M0 87.9999C0 39.3989 39.3989 0 88 0H1352C1400.6 0 1440 39.3989 1440 88V1919H0V87.9999Z"/>
</mask>
<path d="M0 87.9999C0 39.3989 39.3989 0 88 0H1352C1400.6 0 1440 39.3989 1440 88V1919H0V87.9999Z" fill="#F7F8F8"/>
<path d="M0 88C0 38.2944 40.2944 -2 90 -2H1350C1399.71 -2 1440 38.2944 1440 88C1440 40.5035 1400.6 2 1352 2H88C39.3989 2 0 40.5035 0 88ZM1440 1919H0H1440ZM0 1919V0V1919ZM1440 0V1919V0Z" fill="#1DD100" mask="url(#path-1-inside-1_6_58)"/>
</svg>
