<svg width="573" height="220" viewBox="0 0 573 220" fill="none" xmlns="http://www.w3.org/2000/svg">
<rect width="573" height="220" rx="24" fill="white"/>
<path d="M318 6.04151e-05C318 3.15179 318.621 6.27265 319.827 9.18446C321.033 12.0963 322.801 14.742 325.029 16.9706C327.258 19.1992 329.904 20.9671 332.816 22.1732C335.727 23.3793 338.848 24.0001 342 24.0001C345.152 24.0001 348.273 23.3793 351.184 22.1732C354.096 20.9671 356.742 19.1992 358.971 16.9706C361.199 14.742 362.967 12.0963 364.173 9.18446C365.379 6.27265 366 3.15179 366 6.20683e-05L318 6.04151e-05Z" fill="white"/>
<path d="M366 220C366 216.848 365.379 213.727 364.173 210.816C362.967 207.904 361.199 205.258 358.971 203.029C356.742 200.801 354.096 199.033 351.184 197.827C348.273 196.621 345.152 196 342 196C338.848 196 335.727 196.621 332.816 197.827C329.904 199.033 327.258 200.801 325.029 203.029C322.801 205.258 321.033 207.904 319.827 210.816C318.621 213.727 318 216.848 318 220L366 220Z" fill="white"/>
<line x1="343" y1="32.0001" x2="343" y2="188" stroke="#1DD100" stroke-width="2" stroke-dasharray="5 5"/>
</svg>
